<?xml version="1.0" encoding="utf-8"?>
<!-- Svg Vector Icons : http://www.onlinewebfonts.com/icon -->
<!DOCTYPE svg PUBLIC "-//W3C//DTD SVG 1.1//EN" "http://www.w3.org/Graphics/SVG/1.1/DTD/svg11.dtd">
<svg version="1.1" xmlns="http://www.w3.org/2000/svg" xmlns:xlink="http://www.w3.org/1999/xlink" x="0px" y="0px" viewBox="0 0 1000 1000" enable-background="new 0 0 1000 1000" xml:space="preserve">
<metadata> Svg Vector Icons : http://www.onlinewebfonts.com/icon </metadata>
<g><path d="M500,10C229.8,10,10,229.8,10,500c0,270.2,219.8,490,490,490c270.2,0,490-219.8,490-490C990,229.8,770.2,10,500,10z M500,914.6c-228.6,0-414.6-186-414.6-414.6S271.4,85.4,500,85.4c228.6,0,414.6,186,414.6,414.6S728.6,914.6,500,914.6z"/><path d="M738.4,261.6c-14.7-14.7-38.6-14.7-53.3,0L500,446.7L314.9,261.6c-14.7-14.7-38.6-14.7-53.3,0c-14.7,14.7-14.7,38.6,0,53.3L446.7,500L261.6,685.1c-14.7,14.7-14.7,38.6,0,53.3c7.4,7.4,17,11,26.6,11c9.6,0,19.3-3.7,26.6-11L500,553.3l185.1,185.1c7.4,7.4,17,11,26.6,11c9.6,0,19.3-3.7,26.7-11c14.7-14.7,14.7-38.6,0-53.3L553.3,500l185.1-185.1C753.2,300.1,753.2,276.3,738.4,261.6z"/></g>
</svg>