<?xml version="1.0" encoding="utf-8"?>
<!-- Svg Vector Icons : http://www.onlinewebfonts.com/icon -->
<!DOCTYPE svg PUBLIC "-//W3C//DTD SVG 1.1//EN" "http://www.w3.org/Graphics/SVG/1.1/DTD/svg11.dtd">
<svg version="1.1" xmlns="http://www.w3.org/2000/svg" xmlns:xlink="http://www.w3.org/1999/xlink" x="0px" y="0px" viewBox="0 0 1000 1000" enable-background="new 0 0 1000 1000" xml:space="preserve">
<metadata> Svg Vector Icons : http://www.onlinewebfonts.com/icon </metadata>
<g><path d="M500,990C229.8,990,10,770.2,10,500C10,229.7,229.8,10,500,10c270.2,0,490,219.7,490,490C990,770.2,770.2,990,500,990z M500,41.6C247.2,41.6,41.6,247.2,41.6,500c0,252.7,205.6,458.4,458.4,458.4c252.8,0,458.4-205.6,458.4-458.4C958.4,247.2,752.8,41.6,500,41.6z"/><path d="M529.7,258.9c0.8,23.9-16.8,43.1-44.6,43.1c-24.7,0-42.3-19.2-42.3-43.1c0-24.7,18.3-43.9,43.9-43.9C513,215,529.7,234.3,529.7,258.9z M451.5,753.4V367.4h70.2v386.1H451.5z"/></g>
</svg>