<?xml version="1.0" encoding="utf-8"?>
<!-- Svg Vector Icons : http://www.onlinewebfonts.com/icon -->
<!DOCTYPE svg PUBLIC "-//W3C//DTD SVG 1.1//EN" "http://www.w3.org/Graphics/SVG/1.1/DTD/svg11.dtd">
<svg version="1.1" xmlns="http://www.w3.org/2000/svg" xmlns:xlink="http://www.w3.org/1999/xlink" x="0px" y="0px" viewBox="0 0 1000 1000" enable-background="new 0 0 1000 1000" xml:space="preserve">
<metadata> Svg Vector Icons : http://www.onlinewebfonts.com/icon </metadata>
<g><path d="M738.3,71C501.9-61.3,203.6,23.6,71.9,260.5C-29.6,443.2-2.2,663,124,814.6L84.8,964l149.7-51.4c8.8,5.7,17.8,11.2,27.1,16.4C498,1061.2,796.4,976.4,928,739.5C1059.7,502.6,974.7,203.3,738.3,71z M876.5,708.9C760.9,916.1,498.8,990.3,291.1,874.6C83.4,759,8.8,497.3,124.5,290.1C240.1,83,502.2,8.8,709.9,124.4C917.5,240,992.1,501.7,876.5,708.9z M316.7,530.7h368.3v-61.4H316.7V530.7z M316.7,377.2h368.3v-61.4H316.7V377.2z M316.7,684.1h368.3v-61.4H316.7V684.1z"/></g>
</svg>