<?xml version="1.0" encoding="utf-8"?>
<!-- Svg Vector Icons : http://www.onlinewebfonts.com/icon -->
<!DOCTYPE svg PUBLIC "-//W3C//DTD SVG 1.1//EN" "http://www.w3.org/Graphics/SVG/1.1/DTD/svg11.dtd">
<svg version="1.1" xmlns="http://www.w3.org/2000/svg" xmlns:xlink="http://www.w3.org/1999/xlink" x="0px" y="0px" viewBox="0 0 1000 1000" enable-background="new 0 0 1000 1000" xml:space="preserve">
<metadata> Svg Vector Icons : http://www.onlinewebfonts.com/icon </metadata>
<g><path d="M500,990c130.2,0,254.2-50.5,346.1-143.9C937.9,754.2,990,630.2,990,500c0-130.2-50.5-254.2-143.9-346.1C754.2,60.5,630.2,10,500,10c-130.2,0-254.2,50.5-346.1,143.9C60.5,245.8,10,369.8,10,500c0,130.2,50.5,254.2,143.9,346.1C245.8,939.5,369.8,990,500,990z M196.8,196.8C278,115.7,385.2,71.3,500,71.3c114.8,0,222,44.4,303.2,125.6C884.3,278,928.8,385.2,928.8,500c0,114.8-44.4,222-125.6,303.2C722,884.3,614.8,928.8,500,928.8c-114.8,0-222-44.4-303.2-125.6C115.7,722,71.3,614.8,71.3,500C71.3,385.2,115.7,278,196.8,196.8z"/><path d="M376,745C377.5,745,377.5,745,376,745c9.2,0,16.8-3.1,23-9.2l382.8-398.1c12.3-12.2,10.7-32.2-1.5-42.9c-12.3-12.3-32.2-10.7-42.9,1.5L379,668.4l-147-173c-10.7-12.3-30.6-13.8-42.9-3.1c-12.3,10.7-13.8,30.6-3.1,42.9l168.4,199.1C359.1,740.4,368.3,745,376,745z"/></g>
</svg>