<?xml version="1.0" encoding="utf-8"?>
<!-- Generator: Adobe Illustrator 23.0.1, SVG Export Plug-In . SVG Version: 6.00 Build 0)  -->
<svg version="1.1" id="Layer_1" xmlns="http://www.w3.org/2000/svg" xmlns:xlink="http://www.w3.org/1999/xlink" x="0px" y="0px"
	 width="225px" height="42px" viewBox="0 0 225 42" style="enable-background:new 0 0 225 42;" xml:space="preserve">
<style type="text/css">
	.st0{fill-rule:evenodd;clip-rule:evenodd;fill:#FF5F00;}
	.st1{fill-rule:evenodd;clip-rule:evenodd;fill:#EB001B;}
	.st2{fill-rule:evenodd;clip-rule:evenodd;fill:#F79E1B;}
	.st3{fill-rule:evenodd;clip-rule:evenodd;fill:#0D0D0D;}
</style>
<title>logo copy</title>
<desc>Created with Sketch.</desc>
<g id="Disclaimer">
	<g transform="translate(-331.000000, -288.000000)">
		<g id="Group" transform="translate(228.000000, 200.000000)">
			<g transform="translate(103.000000, 88.000000)">
				<g id="Group-10">
					<polygon id="Fill-1" class="st0" points="24.5,36.7 41.9,36.7 41.9,5.3 24.5,5.3 					"/>
					<path id="Fill-2" class="st1" d="M25.6,21c0-6.4,3-12,7.6-15.7C29.8,2.6,25.5,1,20.9,1C9.9,1,1,9.9,1,21s8.9,20,19.9,20
						c4.6,0,8.9-1.6,12.3-4.3C28.5,33,25.6,27.3,25.6,21"/>
					<path id="Fill-4" class="st2" d="M64.7,33.3v-0.8h-0.2L64.3,33L64,32.6h-0.2v0.8H64v-0.6l0.2,0.5h0.1l0.2-0.5v0.6L64.7,33.3
						L64.7,33.3z M63.4,33.3v-0.6h0.3v-0.1H63v0.1h0.3v0.6H63.4z M65.3,21c0,11-8.9,20-19.9,20c-4.6,0-8.9-1.6-12.3-4.3
						c4.6-3.7,7.6-9.3,7.6-15.7s-3-12-7.6-15.7C36.5,2.6,40.8,1,45.5,1C56.4,1,65.3,9.9,65.3,21L65.3,21z"/>
					<path id="Fill-7" class="st3" d="M105,21.1c0-2.3,1.5-4.3,4-4.3c2.4,0,4,1.8,4,4.3s-1.6,4.3-4,4.3
						C106.6,25.3,105,23.4,105,21.1L105,21.1z M115.7,21.1v-6.6h-2.9V16c-0.9-1.2-2.3-1.9-4.2-1.9c-3.7,0-6.6,2.9-6.6,7s2.9,7,6.6,7
						c1.9,0,3.3-0.8,4.2-1.9v1.6h2.9V21.1z M212.9,21.1c0-2.3,1.5-4.3,4-4.3c2.4,0,4,1.8,4,4.3s-1.6,4.3-4,4.3
						C214.4,25.3,212.9,23.4,212.9,21.1L212.9,21.1z M223.6,21.1v-12h-2.9V16c-0.9-1.2-2.3-1.9-4.2-1.9c-3.7,0-6.6,2.9-6.6,7
						s2.9,7,6.6,7c1.9,0,3.3-0.8,4.2-1.9v1.6h2.9V21.1z M151.4,16.7c1.9,0,3,1.2,3.3,3.2h-6.9C148.2,18,149.4,16.7,151.4,16.7
						L151.4,16.7z M151.5,14.1c-3.9,0-6.6,2.8-6.6,7s2.8,7,6.8,7c2,0,3.8-0.5,5.4-1.9l-1.4-2.1c-1.1,0.9-2.5,1.4-3.8,1.4
						c-1.9,0-3.5-0.9-4-3.3h9.8c0-0.4,0.1-0.7,0.1-1.1C157.7,16.9,155.2,14.1,151.5,14.1L151.5,14.1z M186.2,21.1
						c0-2.3,1.5-4.3,4-4.3c2.4,0,4,1.8,4,4.3s-1.6,4.3-4,4.3C187.7,25.3,186.2,23.4,186.2,21.1L186.2,21.1z M196.9,21.1v-6.6H194V16
						c-0.9-1.2-2.3-1.9-4.2-1.9c-3.7,0-6.6,2.9-6.6,7s2.9,7,6.6,7c1.9,0,3.3-0.8,4.2-1.9v1.6h2.9V21.1z M170,21.1c0,4,2.8,7,7.1,7
						c2,0,3.3-0.4,4.8-1.6l-1.4-2.3c-1.1,0.8-2.2,1.2-3.5,1.2c-2.3,0-4-1.7-4-4.3s1.7-4.2,4-4.3c1.2,0,2.4,0.4,3.5,1.2l1.4-2.3
						c-1.4-1.1-2.8-1.6-4.8-1.6C172.8,14.1,170,17,170,21.1L170,21.1z M207,14.1c-1.7,0-2.7,0.8-3.5,1.9v-1.6h-2.8v13.3h2.9v-7.4
						c0-2.2,0.9-3.4,2.8-3.4c0.6,0,1.2,0.1,1.8,0.3l0.9-2.7C208.4,14.2,207.6,14.1,207,14.1L207,14.1z M130,15.5
						c-1.4-0.9-3.3-1.4-5.4-1.4c-3.3,0-5.5,1.6-5.5,4.3c0,2.2,1.6,3.5,4.6,3.9l1.4,0.2c1.6,0.2,2.3,0.6,2.3,1.4c0,1-1.1,1.6-3,1.6
						c-2,0-3.4-0.6-4.4-1.4l-1.4,2.3c1.6,1.2,3.6,1.7,5.7,1.7c3.8,0,6-1.8,6-4.3c0-2.3-1.7-3.6-4.6-4l-1.4-0.2
						c-1.2-0.2-2.2-0.4-2.2-1.3c0-1,0.9-1.6,2.5-1.6c1.7,0,3.3,0.6,4.1,1.1L130,15.5z M167.1,14.1c-1.7,0-2.7,0.8-3.5,1.9v-1.6h-2.8
						v13.3h2.9v-7.4c0-2.2,0.9-3.4,2.8-3.4c0.6,0,1.2,0.1,1.8,0.3l0.9-2.7C168.5,14.2,167.6,14.1,167.1,14.1L167.1,14.1z
						 M142.5,14.4h-4.7v-4h-2.9v4h-2.7V17h2.7v6.1c0,3.1,1.2,4.9,4.6,4.9c1.2,0,2.7-0.4,3.6-1l-0.8-2.5c-0.9,0.5-1.8,0.8-2.5,0.8
						c-1.4,0-1.9-0.9-1.9-2.2v-6h4.7v-2.7H142.5z M99.5,27.7v-8.3c0-3.1-2-5.3-5.2-5.3c-1.7,0-3.4,0.5-4.6,2.4
						c-0.9-1.5-2.4-2.4-4.4-2.4c-1.4,0-2.8,0.4-3.9,2v-1.6h-2.9v13.3h2.9v-7.4c0-2.3,1.3-3.5,3.2-3.5c1.9,0,2.9,1.3,2.9,3.5v7.4h2.9
						v-7.4c0-2.3,1.3-3.5,3.2-3.5c2,0,2.9,1.3,2.9,3.5v7.4h3V27.7z"/>
				</g>
			</g>
		</g>
	</g>
</g>
</svg>
