<?xml version="1.0" encoding="UTF-8"?>
<svg width="65px" height="54px" viewBox="0 0 65 54" version="1.1" xmlns="http://www.w3.org/2000/svg" xmlns:xlink="http://www.w3.org/1999/xlink">
    <!-- Generator: Sketch 51.2 (57519) - http://www.bohemiancoding.com/sketch -->
    <title>logo</title>
    <desc>Created with Sketch.</desc>
    <defs></defs>
    <g id="Page-1" stroke="none" stroke-width="1" fill="none" fill-rule="evenodd">
        <g id="logo" fill-rule="nonzero">
            <polygon id="Fill-1" fill="#FF5F00" points="23.4690757 35.6724175 40.865849 35.6724175 40.865849 4.26995004 23.4690757 4.26995004"></polygon>
            <path d="M24.5737984,19.9711838 C24.5737984,13.6003761 27.5434,7.92634093 32.167628,4.26995004 C28.7854744,1.59547568 24.5185705,0 19.8805355,0 C8.90068629,0 0.000165683555,8.94154277 0.000165683555,19.9711838 C0.000165683555,31.0008247 8.90068629,39.9423675 19.8805355,39.9423675 C24.5185705,39.9423675 28.7854744,38.3468918 32.167628,35.6724175 C27.5434,32.0154718 24.5737984,26.3419914 24.5737984,19.9711838" id="Fill-2" fill="#EB001B"></path>
            <path d="M63.7143293,32.3464942 L63.7143293,31.5715013 L63.5127476,31.5715013 L63.2813429,32.104621 L63.049386,31.5715013 L62.8478043,31.5715013 L62.8478043,32.3464942 L62.9897399,32.3464942 L62.9897399,31.7617823 L63.2073376,32.2660547 L63.354796,32.2660547 L63.5723937,31.7606728 L63.5723937,32.3464942 L63.7143293,32.3464942 Z M62.4380136,32.3464942 L62.4380136,31.703533 L62.69648,31.703533 L62.69648,31.5726108 L62.0392685,31.5726108 L62.0392685,31.703533 L62.2971826,31.703533 L62.2971826,32.3464942 L62.4380136,32.3464942 Z M64.3350904,19.9710173 C64.3350904,31.0006583 55.4340175,39.9422011 44.4547205,39.9422011 C39.8166855,39.9422011 35.5492294,38.3467254 32.167628,35.672251 C36.7918561,32.0158601 39.7614577,26.3418249 39.7614577,19.9710173 C39.7614577,13.6007645 36.7918561,7.92672926 32.167628,4.26978361 C35.5492294,1.59530925 39.8166855,-0.000166426531 44.4547205,-0.000166426531 C55.4340175,-0.000166426531 64.3350904,8.94137634 64.3350904,19.9710173 Z" id="Fill-4" fill="#F79E1B"></path>
            <path d="M12.2202822,50.0758013 C12.2202822,49.0865997 12.8651797,48.2739824 13.9204243,48.2739824 C14.9286179,48.2739824 15.6086279,49.0513298 15.6086279,50.0758013 C15.6086279,51.1002728 14.9286179,51.8776203 13.9204243,51.8776203 C12.8651797,51.8776203 12.2202822,51.065003 12.2202822,50.0758013 Z M16.7577398,50.0758013 L16.7577398,47.2610324 L15.5381694,47.2610324 L15.5381694,47.9440918 C15.1512306,47.4378518 14.5650879,47.1197178 13.7678023,47.1197178 C12.1968739,47.1197178 10.9658333,48.3565138 10.9658333,50.0758013 C10.9658333,51.7953239 12.1968739,53.0318848 13.7678023,53.0318848 C14.5650879,53.0318848 15.1512306,52.7139859 15.5381694,52.2075109 L15.5381694,52.8905703 L16.7577398,52.8905703 L16.7577398,50.0758013 Z M57.9340425,50.0758013 C57.9340425,49.0865997 58.5789404,48.2739824 59.6339506,48.2739824 C60.6421447,48.2739824 61.3221546,49.0513298 61.3221546,50.0758013 C61.3221546,51.1002728 60.6421447,51.8776203 59.6339506,51.8776203 C58.5789404,51.8776203 57.9340425,51.065003 57.9340425,50.0758013 Z M62.4712661,50.0758013 L62.4712661,45 L61.2519297,45 L61.2519297,47.9440918 C60.8649913,47.4378518 60.2788481,47.1197178 59.481563,47.1197178 C57.9104002,47.1197178 56.67936,48.3565138 56.67936,50.0758013 C56.67936,51.7953239 57.9104002,53.0318848 59.481563,53.0318848 C60.2788481,53.0318848 60.8649913,52.7139859 61.2519297,52.2075109 L61.2519297,52.8905703 L62.4712661,52.8905703 L62.4712661,50.0758013 Z M31.8822857,48.2151993 C32.6678671,48.2151993 33.1718471,48.7096826 33.3008264,49.5813181 L30.3932864,49.5813181 C30.5222658,48.7687008 31.0145416,48.2151993 31.8822857,48.2151993 Z M31.905694,47.1197178 C30.2643067,47.1197178 29.1151952,48.3210088 29.1151952,50.0758013 C29.1151952,51.8660988 30.3111233,53.0318848 31.9878571,53.0318848 C32.8319589,53.0318848 33.6058361,52.8197955 34.2858461,52.2427808 L33.6877653,51.3358754 C33.2188977,51.7127925 32.6208165,51.9248819 32.0580817,51.9248819 C31.2725007,51.9248819 30.5573782,51.5597214 30.3813479,50.5467713 L34.5435712,50.5467713 C34.5555093,50.3939353 34.5669795,50.2408642 34.5669795,50.0758013 C34.5555093,48.3210088 33.4768568,47.1197178 31.905694,47.1197178 Z M46.6198936,50.0758013 C46.6198936,49.0865997 47.2645571,48.2739824 48.3200353,48.2739824 C49.3282293,48.2739824 50.0082393,49.0513298 50.0082393,50.0758013 C50.0082393,51.1002728 49.3282293,51.8776203 48.3200353,51.8776203 C47.2645571,51.8776203 46.6198936,51.065003 46.6198936,50.0758013 Z M51.1571168,50.0758013 L51.1571168,47.2610324 L49.9380147,47.2610324 L49.9380147,47.9440918 C49.5510759,47.4378518 48.9646988,47.1197178 48.1674137,47.1197178 C46.5964853,47.1197178 45.3654447,48.3565138 45.3654447,50.0758013 C45.3654447,51.7953239 46.5964853,53.0318848 48.1674137,53.0318848 C48.9646988,53.0318848 49.5510759,52.7139859 49.9380147,52.2075109 L49.9380147,52.8905703 L51.1571168,52.8905703 L51.1571168,50.0758013 Z M39.7376304,50.0758013 C39.7376304,51.7835674 40.9218544,53.0318848 42.7273335,53.0318848 C43.5714353,53.0318848 44.1341701,52.8435438 44.7439555,52.360582 L44.1578124,51.3713804 C43.700415,51.7010359 43.2198433,51.8776203 42.692221,51.8776203 C41.7191395,51.8660988 41.0037831,51.1592911 41.0037831,50.0758013 C41.0037831,48.9923116 41.7191395,48.285739 42.692221,48.2739824 C43.2198433,48.2739824 43.700415,48.4505668 44.1578124,48.7804574 L44.7439555,47.7912558 C44.1341701,47.308294 43.5714353,47.1197178 42.7273335,47.1197178 C40.9218544,47.1197178 39.7376304,48.3682704 39.7376304,50.0758013 Z M55.4483194,47.1197178 C54.7449011,47.1197178 54.2877378,47.4496085 53.9710239,47.9440918 L53.9710239,47.2610324 L52.7633916,47.2610324 L52.7633916,52.8905703 L53.9827281,52.8905703 L53.9827281,49.7343892 C53.9827281,48.8039706 54.3813706,48.285739 55.1786562,48.285739 C55.4249111,48.285739 55.6828702,48.3210088 55.9408292,48.4270535 L56.3160635,47.2730241 C56.0464007,47.1669795 55.6945743,47.1197178 55.4483194,47.1197178 Z M22.7839627,47.7087243 C22.1978195,47.3200506 21.3888302,47.1197178 20.4976778,47.1197178 C19.0791371,47.1197178 18.1645764,47.8027772 18.1645764,48.9217719 C18.1645764,49.8404339 18.8445863,50.405692 20.0990349,50.5822763 L20.6737078,50.6648078 C21.3417796,50.7588607 21.6584935,50.9354451 21.6584935,51.2535791 C21.6584935,51.6892793 21.2127999,51.9366385 20.3804023,51.9366385 C19.5363005,51.9366385 18.926749,51.6657661 18.5161683,51.3478672 L17.9417294,52.3015638 C18.6100356,52.7962822 19.4543713,53.0318848 20.3686981,53.0318848 C21.9866771,53.0318848 22.9246461,52.266294 22.9246461,51.1945609 C22.9246461,50.2053592 22.1861154,49.6871276 20.9667793,49.5105432 L20.3923404,49.4280118 C19.8647181,49.3574721 19.4426672,49.2514274 19.4426672,48.8747455 C19.4426672,48.4623234 19.8410758,48.2151993 20.5093816,48.2151993 C21.2247384,48.2151993 21.9164526,48.4860717 22.2563403,48.6979259 L22.7839627,47.7087243 Z M38.5065898,47.1197178 C37.8031715,47.1197178 37.3457742,47.4496085 37.0292943,47.9440918 L37.0292943,47.2610324 L35.821662,47.2610324 L35.821662,52.8905703 L37.0409984,52.8905703 L37.0409984,49.7343892 C37.0409984,48.8039706 37.4396414,48.285739 38.2369266,48.285739 C38.4831815,48.285739 38.7411406,48.3210088 38.9990996,48.4270535 L39.3740999,47.2730241 C39.1044367,47.1669795 38.7526107,47.1197178 38.5065898,47.1197178 Z M28.1070012,47.2610324 L26.1137879,47.2610324 L26.1137879,45.5535015 L24.8827473,45.5535015 L24.8827473,47.2610324 L23.74534,47.2610324 L23.74534,48.380027 L24.8827473,48.380027 L24.8827473,50.9472017 C24.8827473,52.2545374 25.3867274,53.0318848 26.8289104,53.0318848 C27.3565323,53.0318848 27.9660837,52.8668219 28.3530221,52.5961846 L28.0014302,51.5479648 C27.6378997,51.7600541 27.2392571,51.8660988 26.9227772,51.8660988 C26.3129922,51.8660988 26.1137879,51.4889465 26.1137879,50.9239236 L26.1137879,48.380027 L28.1070012,48.380027 L28.1070012,47.2610324 Z M9.88718069,52.8905703 L9.88718069,49.3574721 C9.88718069,48.0266232 9.04284469,47.1317096 7.68282467,47.1197178 C6.96770226,47.1081964 6.22917161,47.3318072 5.7132535,48.1209112 C5.32631497,47.4966349 4.71652972,47.1197178 3.86072365,47.1197178 C3.26264257,47.1197178 2.67649969,47.2965373 2.21933636,47.9560835 L2.21933636,47.2610324 L1,47.2610324 L1,52.8905703 L2.23104048,52.8905703 L2.23104048,49.769659 C2.23104048,48.792214 2.77036683,48.2739824 3.60276462,48.2739824 C4.41175416,48.2739824 4.82210098,48.8039706 4.82210098,49.7579024 L4.82210098,52.8905703 L6.0531415,52.8905703 L6.0531415,49.769659 C6.0531415,48.792214 6.61611018,48.2739824 7.42486564,48.2739824 C8.25726342,48.2739824 8.65590612,48.8039706 8.65590612,49.7579024 L8.65590612,52.8905703 L9.88718069,52.8905703 Z" id="Fill-7" fill="#0D0D0D"></path>
        </g>
    </g>
</svg>