<?xml version="1.0" encoding="utf-8"?>
<!-- Generator: Adobe Illustrator 18.1.1, SVG Export Plug-In . SVG Version: 6.00 Build 0)  -->
<svg version="1.1" id="Layer_1" xmlns="http://www.w3.org/2000/svg" xmlns:xlink="http://www.w3.org/1999/xlink" x="0px" y="0px"
	 viewBox="7 -7 64 64" enable-background="new 7 -7 64 64" xml:space="preserve">
<rect x="33.2995491" y="14.3012686" fill="#F16022" width="11.3018379" height="20.3097248"/>
<path id="XMLID_107_" fill="#E91D25" d="M34.0171967,24.456131c0-4.1202545,1.9291687-7.7898369,4.9333076-10.1548634
	c-2.1970406-1.7295761-4.9691849-2.7615223-7.9822578-2.7615223c-7.1330013,0-12.915451,5.7828445-12.915451,12.9163876
	c0,7.1334324,5.7824497,12.9163837,12.915451,12.9163837c3.013073,0,5.7852173-1.0319443,7.9822578-2.7615242
	C35.9463654,32.2458611,34.0171967,28.5763855,34.0171967,24.456131z"/>
<path fill="#F69E1E" d="M59.8482132,24.456131c0,7.1334343-5.7824516,12.9163857-12.9154549,12.9163857
	c-3.0130692,0-5.7852135-1.0319443-7.982254-2.7615242c3.0042076-2.3651314,4.9332695-6.0346069,4.9332695-10.1548615
	s-1.9290619-7.7898369-4.9332695-10.1548634c2.1970406-1.7295761,4.9691849-2.7615223,7.982254-2.7615223
	C54.0657616,11.5397453,59.8482132,17.3225899,59.8482132,24.456131z M58.6159172,32.459877v-0.4157982h0.1676598v-0.0847092
	h-0.4269943v0.0847092h0.1677399v0.4157982H58.6159172z M59.4449005,32.459877v-0.5013313h-0.1308861l-0.150547,0.3448296
	l-0.150589-0.3448296h-0.1309547v0.5013313H58.97435v-0.3781624l0.1411819,0.3260345h0.0958328l0.1411819-0.3268585v0.3789864
	H59.4449005z"/>
</svg>
