<?xml version="1.0" encoding="UTF-8"?>
<svg width="293px" height="40px" viewBox="0 0 293 40" version="1.1" xmlns="http://www.w3.org/2000/svg" xmlns:xlink="http://www.w3.org/1999/xlink">
    <!-- Generator: Sketch 51.1 (57501) - http://www.bohemiancoding.com/sketch -->
    <title>logo</title>
    <desc>Created with Sketch.</desc>
    <defs></defs>
    <g id="Page-1" stroke="none" stroke-width="1" fill="none" fill-rule="evenodd">
        <g id="DXP-Home" transform="translate(-104.000000, -20.000000)">
            <g id="logo" transform="translate(104.000000, 20.000000)">
                <g id="Group-2">
                    <g id="cobrand-logo" fill-rule="nonzero">
                        <g id="Group-10">
                            <polygon id="Fill-1" fill="#FF5F00" points="23.5365388 35.6724175 40.9833201 35.6724175 40.9833201 4.26995004 23.5365388 4.26995004"></polygon>
                            <path d="M24.6444371,19.9711838 C24.6444371,13.6003761 27.622575,7.92634093 32.2600956,4.26995004 C28.8682198,1.59547568 24.5890505,0 19.9376832,0 C8.92627181,0 0.000166159822,8.94154277 0.000166159822,19.9711838 C0.000166159822,31.0008247 8.92627181,39.9423675 19.9376832,39.9423675 C24.5890505,39.9423675 28.8682198,38.3468918 32.2600956,35.6724175 C27.622575,32.0154718 24.6444371,26.3419914 24.6444371,19.9711838" id="Fill-2" fill="#EB001B"></path>
                            <path d="M63.8974796,32.3464942 L63.8974796,31.5715013 L63.6953185,31.5715013 L63.4632486,32.104621 L63.2306248,31.5715013 L63.0284637,31.5715013 L63.0284637,32.3464942 L63.1708073,32.3464942 L63.1708073,31.7617823 L63.3890306,32.2660547 L63.5369128,32.2660547 L63.755136,31.7606728 L63.755136,32.3464942 L63.8974796,32.3464942 Z M62.6174951,32.3464942 L62.6174951,31.703533 L62.8767044,31.703533 L62.8767044,31.5726108 L62.2176038,31.5726108 L62.2176038,31.703533 L62.4762593,31.703533 L62.4762593,32.3464942 L62.6174951,32.3464942 Z M64.5200251,19.9710173 C64.5200251,31.0006583 55.5933656,39.9422011 44.582508,39.9422011 C39.9311408,39.9422011 35.6514176,38.3467254 32.2600956,35.672251 C36.8976163,32.0158601 39.8757542,26.3418249 39.8757542,19.9710173 C39.8757542,13.6007645 36.8976163,7.92672926 32.2600956,4.26978361 C35.6514176,1.59530925 39.9311408,-0.000166426531 44.582508,-0.000166426531 C55.5933656,-0.000166426531 64.5200251,8.94137634 64.5200251,19.9710173 Z" id="Fill-4" fill="#F79E1B"></path>
                            <path d="M103.118641,20.9591362 C103.118641,18.652219 104.62693,16.7571142 107.09494,16.7571142 C109.452907,16.7571142 111.043317,18.5699664 111.043317,20.9591362 C111.043317,23.3483063 109.452907,25.1611585 107.09494,25.1611585 C104.62693,25.1611585 103.118641,23.2660535 103.118641,20.9591362 Z M113.730864,20.9591362 L113.730864,14.3948135 L110.878528,14.3948135 L110.878528,15.9877763 C109.973554,14.8071742 108.602681,14.0652539 106.737987,14.0652539 C103.063894,14.0652539 100.184732,16.949586 100.184732,20.9591362 C100.184732,24.9692352 103.063894,27.8530188 106.737987,27.8530188 C108.602681,27.8530188 109.973554,27.1116468 110.878528,25.9304964 L110.878528,27.5234592 L113.730864,27.5234592 L113.730864,20.9591362 Z M210.034158,20.9591362 C210.034158,18.652219 211.542447,16.7571142 214.009909,16.7571142 C216.367877,16.7571142 217.958287,18.5699664 217.958287,20.9591362 C217.958287,23.3483063 216.367877,25.1611585 214.009909,25.1611585 C211.542447,25.1611585 210.034158,23.2660535 210.034158,20.9591362 Z M220.645833,20.9591362 L220.645833,9.12185983 L217.794045,9.12185983 L217.794045,15.9877763 C216.889071,14.8071742 215.518198,14.0652539 213.653504,14.0652539 C209.978863,14.0652539 207.099701,16.949586 207.099701,20.9591362 C207.099701,24.9692352 209.978863,27.8530188 213.653504,27.8530188 C215.518198,27.8530188 216.889071,27.1116468 217.794045,25.9304964 L217.794045,27.5234592 L220.645833,27.5234592 L220.645833,20.9591362 Z M149.10421,16.6200264 C150.94153,16.6200264 152.12024,17.7732106 152.421898,19.805952 L145.621732,19.805952 C145.92339,17.9108472 147.074726,16.6200264 149.10421,16.6200264 Z M149.158957,14.0652539 C145.320074,14.0652539 142.632528,16.8667847 142.632528,20.9591362 C142.632528,25.1342891 145.429569,27.8530188 149.35112,27.8530188 C151.325309,27.8530188 153.135256,27.3584053 154.725666,26.0127492 L153.326872,23.8977551 C152.230283,24.7767637 150.831488,25.2713772 149.515362,25.2713772 C147.678042,25.2713772 146.005511,24.4197864 145.593811,22.0574855 L155.328434,22.0574855 C155.356355,21.7010568 155.383181,21.3440795 155.383181,20.9591362 C155.356355,16.8667847 152.833598,14.0652539 149.158957,14.0652539 Z M183.572583,20.9591362 C183.572583,18.652219 185.080324,16.7571142 187.548881,16.7571142 C189.906849,16.7571142 191.497259,18.5699664 191.497259,20.9591362 C191.497259,23.3483063 189.906849,25.1611585 187.548881,25.1611585 C185.080324,25.1611585 183.572583,23.2660535 183.572583,20.9591362 Z M194.184258,20.9591362 L194.184258,14.3948135 L191.333017,14.3948135 L191.333017,15.9877763 C190.428043,14.8071742 189.056623,14.0652539 187.191929,14.0652539 C183.517835,14.0652539 180.638673,16.949586 180.638673,20.9591362 C180.638673,24.9692352 183.517835,27.8530188 187.191929,27.8530188 C189.056623,27.8530188 190.428043,27.1116468 191.333017,25.9304964 L191.333017,27.5234592 L194.184258,27.5234592 L194.184258,20.9591362 Z M167.47632,20.9591362 C167.47632,24.9418176 170.245987,27.8530188 174.468649,27.8530188 C176.442837,27.8530188 177.758963,27.4137887 179.185132,26.2874736 L177.814258,23.9805564 C176.744495,24.749346 175.620533,25.1611585 174.386528,25.1611585 C172.110681,25.1342891 170.437603,23.4859429 170.437603,20.9591362 C170.437603,18.4323298 172.110681,16.7845318 174.386528,16.7571142 C175.620533,16.7571142 176.744495,17.1689267 177.814258,17.9382648 L179.185132,15.6313476 C177.758963,14.5050322 176.442837,14.0652539 174.468649,14.0652539 C170.245987,14.0652539 167.47632,16.9770034 167.47632,20.9591362 Z M204.220539,14.0652539 C202.575381,14.0652539 201.506166,14.8345918 200.765435,15.9877763 L200.765435,14.3948135 L197.94102,14.3948135 L197.94102,27.5234592 L200.792808,27.5234592 L200.792808,20.1629292 C200.792808,17.9930998 201.725155,16.7845318 203.58985,16.7845318 C204.165791,16.7845318 204.769107,16.8667847 205.372423,17.1140914 L206.250022,14.4227794 C205.619333,14.1754726 204.796481,14.0652539 204.220539,14.0652539 Z M127.825017,15.4388758 C126.454144,14.5324498 124.562076,14.0652539 122.477845,14.0652539 C119.160157,14.0652539 117.021179,15.6582167 117.021179,18.2678244 C117.021179,20.410236 118.611589,21.7284744 121.545498,22.1402868 L122.889545,22.3327584 C124.452034,22.5520993 125.192765,22.9639115 125.192765,23.705832 C125.192765,24.7219284 124.150376,25.2987948 122.203561,25.2987948 C120.229372,25.2987948 118.803752,24.6670932 117.843484,23.9257212 L116.499984,26.1498373 C118.06302,27.30357 120.037756,27.8530188 122.176187,27.8530188 C125.960323,27.8530188 128.154049,26.0675845 128.154049,23.5681955 C128.154049,21.2612782 126.42677,20.0527103 123.574982,19.6408978 L122.231482,19.4484263 C120.997477,19.2839206 120.010383,19.0366138 120.010383,18.158154 C120.010383,17.1963443 120.942182,16.6200264 122.505219,16.6200264 C124.178297,16.6200264 125.796081,17.251728 126.591012,17.745793 L127.825017,15.4388758 Z M164.597157,14.0652539 C162.952,14.0652539 161.882237,14.8345918 161.142053,15.9877763 L161.142053,14.3948135 L158.317638,14.3948135 L158.317638,27.5234592 L161.169427,27.5234592 L161.169427,20.1629292 C161.169427,17.9930998 162.101774,16.7845318 163.966468,16.7845318 C164.54241,16.7845318 165.145726,16.8667847 165.749041,17.1140914 L166.626094,14.4227794 C165.995404,14.1754726 165.172552,14.0652539 164.597157,14.0652539 Z M140.27456,14.3948135 L135.612825,14.3948135 L135.612825,10.4126806 L132.733663,10.4126806 L132.733663,14.3948135 L130.07349,14.3948135 L130.07349,17.004421 L132.733663,17.004421 L132.733663,22.9913291 C132.733663,26.0401669 133.912373,27.8530188 137.285356,27.8530188 C138.519361,27.8530188 139.944981,27.4680757 140.849955,26.8369224 L140.02765,24.3923688 C139.177424,24.8869824 138.245077,25.1342891 137.504893,25.1342891 C136.078725,25.1342891 135.612825,24.2547323 135.612825,22.9370423 L135.612825,17.004421 L140.27456,17.004421 L140.27456,14.3948135 Z M97.6619745,27.5234592 L97.6619745,19.2839206 C97.6619745,16.1802478 95.6872383,14.0932198 92.5064183,14.0652539 C90.8338873,14.0383845 89.106609,14.5598674 87.8999778,16.400137 C86.9950044,14.9442623 85.5688364,14.0652539 83.567274,14.0652539 C82.1684797,14.0652539 80.7976065,14.4776146 79.7283911,16.0157422 L79.7283911,14.3948135 L76.8766026,14.3948135 L76.8766026,27.5234592 L79.7557647,27.5234592 L79.7557647,20.245182 C79.7557647,17.9656822 81.0171433,16.7571142 82.9639584,16.7571142 C84.8560262,16.7571142 85.8157469,17.9930998 85.8157469,20.2177644 L85.8157469,27.5234592 L88.6949091,27.5234592 L88.6949091,20.245182 C88.6949091,17.9656822 90.0115824,16.7571142 91.9031027,16.7571142 C93.8499178,16.7571142 94.7822649,17.9930998 94.7822649,20.2177644 L94.7822649,27.5234592 L97.6619745,27.5234592 Z" id="Fill-7" fill="#FFFFFF"></path>
                        </g>
                    </g>
                    <path d="M233.625,3 L233.625,35.903" id="Page-1" stroke="#FFFFFF" stroke-width="0.5"></path>
                    <text id="DXP" font-family="MarkOffcForMC-Heavy, Mark Offc For MC" font-size="24" font-weight="600">
                        <tspan x="244.610577" y="28" fill="#D0021B">D</tspan>
                        <tspan x="261.494577" y="28" fill="#FF5F00">X</tspan>
                        <tspan x="277.766577" y="28" fill="#F79E1B">P</tspan>
                    </text>
                </g>
            </g>
        </g>
    </g>
</svg>