<?xml version="1.0" encoding="utf-8"?>
<!-- Generator: Adobe Illustrator 22.0.0, SVG Export Plug-In . SVG Version: 6.00 Build 0)  -->
<svg version="1.1" id="Layer_1" xmlns="http://www.w3.org/2000/svg" xmlns:xlink="http://www.w3.org/1999/xlink" x="0px" y="0px"
	 width="98px" height="28px" viewBox="0 0 98 28" style="enable-background:new 0 0 98 28;" xml:space="preserve">
<style type="text/css">
	.st0{fill:#80C242;}
	.st1{fill:#21BFF0;}
	.st2{filter:url(#Adobe_OpacityMaskFilter);}
	.st3{fill:#FFFFFF;}
	.st4{mask:url(#mask-2_1_);fill:#FFFFFF;}
</style>
<title>Page-1</title>
<desc>Created with Sketch.</desc>
<g id="Page-1_1_">
	<g id="co-brand" transform="translate(-317.000000, -86.000000)">
		<g id="Group-2" transform="translate(112.000000, 86.000000)">
			<g id="cobrand-logo">
				<g id="Page-1" transform="translate(205.927505, 0.000000)">
					<path id="Fill-1" class="st0" d="M80.6,4.2c3.3,0,6.3,1.3,8.4,3.5l3-2.9C89.1,1.8,85.1,0,80.6,0c-4.4,0-8.5,1.8-11.4,4.7
						c1.3,1.3,1.5,1.5,3,2.9C74.4,5.5,77.3,4.2,80.6,4.2"/>
					<path id="Fill-3" class="st1" d="M92.5,16c0,3.3-1.3,6.2-3.5,8.4l3,2.9c2.9-2.9,4.7-6.9,4.7-11.3c0-4.4-1.8-8.4-4.7-11.3
						c-1.3,1.3-1.5,1.5-3,2.9C91.2,9.8,92.5,12.7,92.5,16"/>
					<g id="Group-7" transform="translate(0.000000, 9.893700)">
						<g id="Fill-5-Clipped">
							<g id="path-1_1_">
							</g>
							<defs>
								<filter id="Adobe_OpacityMaskFilter" filterUnits="userSpaceOnUse" x="0" y="0.5" width="10.1" height="12.7">
									<feColorMatrix  type="matrix" values="1 0 0 0 0  0 1 0 0 0  0 0 1 0 0  0 0 0 1 0"/>
								</filter>
							</defs>
							<mask maskUnits="userSpaceOnUse" x="0" y="0.5" width="10.1" height="12.7" id="mask-2_1_">
								<g class="st2">
									<polygon id="path-1_2_" class="st3" points="0,0.5 0,13.1 10.1,13.1 10.1,0.5 									"/>
								</g>
							</mask>
							<path id="Fill-5" class="st4" d="M0,0.5l5.2,0c3,0,4.9,1.8,4.9,4.4v0c0,2.9-2.3,4.4-5.1,4.4l-2.1,0l0,3.8l-2.8,0L0,0.5z
								 M5,6.9c1.4,0,2.2-0.8,2.2-1.9v0C7.2,3.7,6.4,3,5,3L2.8,3l0,3.9L5,6.9z"/>
						</g>
					</g>
					<path id="Fill-8" class="st3" d="M15.2,10.3l2.6,0L23.3,23l-2.9,0l-1.2-2.8l-5.4,0L12.6,23l-2.8,0L15.2,10.3z M18.2,17.7
						l-1.7-4.1l-1.7,4.1L18.2,17.7z"/>
					<path id="Fill-10" class="st3" d="M25.2,10.4l5.8,0c1.6,0,2.9,0.5,3.7,1.3c0.7,0.7,1.1,1.7,1.1,2.9v0c0,2-1.1,3.3-2.7,3.9
						l3.1,4.5L33,23L30.2,19L28,19l0,4l-2.8,0L25.2,10.4z M30.9,16.5c1.4,0,2.1-0.7,2.1-1.8v0c0-1.2-0.8-1.8-2.2-1.8l-2.8,0l0,3.6
						L30.9,16.5z"/>
					<polygon id="Fill-12" class="st3" points="48.7,10.4 51.3,10.4 57.3,18.2 57.3,10.4 60,10.4 60,23.1 57.6,23.1 51.5,15 
						51.5,23.1 48.7,23.1 					"/>
					<polygon id="Fill-14" class="st3" points="40.7,13 36.8,13 36.8,10.4 47.4,10.4 47.4,13 43.5,13 43.5,23.1 40.7,23.1 					"/>
					<polygon id="Fill-16" class="st3" points="62.4,10.4 72,10.4 72,12.9 65.1,12.9 65.1,15.5 71.1,15.5 71.1,17.9 65.1,17.9 
						65.1,20.6 72,20.6 72,23.1 62.4,23.1 					"/>
					<path id="Fill-18" class="st3" d="M74.5,10.4l5.8,0c1.6,0,2.9,0.5,3.7,1.3c0.7,0.7,1.1,1.7,1.1,2.9v0c0,2-1.1,3.3-2.7,3.9
						l3.1,4.5l-3.3,0L79.5,19l-2.2,0l0,4l-2.8,0L74.5,10.4z M80.2,16.6c1.4,0,2.1-0.7,2.1-1.8v0c0-1.2-0.8-1.8-2.2-1.8l-2.8,0l0,3.6
						L80.2,16.6z"/>
				</g>
			</g>
		</g>
	</g>
</g>
</svg>
