<?xml version="1.0" encoding="UTF-8"?>
<svg width="98px" height="28px" viewBox="0 0 98 28" version="1.1" xmlns="http://www.w3.org/2000/svg" xmlns:xlink="http://www.w3.org/1999/xlink">
    <!-- Generator: Sketch 47.1 (45422) - http://www.bohemiancoding.com/sketch -->
    <title>Page-1</title>
    <desc>Created with Sketch.</desc>
    <defs>
        <polygon id="path-1" points="1.12533795e-19 0.470206354 1.12533795e-19 13.1234702 10.073347 13.1234702 10.073347 0.470206354 0 0.470206354"></polygon>
    </defs>
    <g id="Page-1" stroke="none" stroke-width="1" fill="none" fill-rule="evenodd">
        <g id="co-brand" transform="translate(-317.000000, -86.000000)">
            <g id="Group-2" transform="translate(112.000000, 86.000000)">
                <g id="cobrand-logo">
                    <g id="Page-1" transform="translate(205.927505, 0.000000)">
                        <path d="M80.6242718,4.16768902 C83.9149602,4.16768902 86.8942662,5.49427439 89.0498621,7.63958569 L92.0142218,4.69217234 C89.0996833,1.79296823 85.0716417,8.31193838e-05 80.6242718,8.31193838e-05 C76.1760717,8.31193838e-05 72.1488604,1.79296823 69.2334915,4.69217234 C70.5446187,5.99714666 70.714841,6.16587901 72.1970208,7.63958569 C74.3526168,5.49427439 77.3335835,4.16768902 80.6242718,4.16768902" id="Fill-1" fill="#80C242" fill-rule="nonzero"></path>
                        <path d="M92.5411637,16.0203469 C92.5411637,19.2935883 91.2084474,22.2567943 89.0503603,24.4012744 L92.0138896,27.3486877 C94.9284281,24.4494836 96.7319545,20.4439605 96.7319545,16.0203469 C96.7319545,11.5959021 94.9284281,7.59121021 92.0138896,4.6920061 C90.7019322,5.99698042 90.5325402,6.16571277 89.0503603,7.63941945 C91.2084474,9.78389955 92.5411637,12.7471056 92.5411637,16.0203469" id="Fill-3" fill="#21BFF0" fill-rule="nonzero"></path>
                        <g id="Group-7" transform="translate(0.000000, 9.893700)">
                            <g id="Fill-5-Clipped">
                                <mask id="mask-2" fill="white">
                                    <use xlink:href="#path-1"></use>
                                </mask>
                                <g id="path-1"></g>
                                <path d="M0.0119570809,0.470206354 L5.20830518,0.475193517 C8.24241447,0.477687099 10.0766639,2.26807863 10.0733425,4.85226027 L10.0733425,4.8888328 C10.0708514,7.8162975 7.77741687,9.33322625 4.92515486,9.32990148 L2.79862122,9.32823909 L2.79613017,13.1234702 L-0.000498211706,13.1209766 L0.0119570809,0.470206354 Z M5.01732402,6.85460623 C6.41646856,6.85543742 7.23602682,6.02507478 7.23768753,4.94036682 L7.23768753,4.90545668 C7.23851788,3.65700353 6.36747775,2.98789249 4.9683332,2.9862301 L2.80526405,2.98456772 L2.80111228,6.85211264 L5.01732402,6.85460623 Z" id="Fill-5" fill="#211F1F" fill-rule="nonzero" mask="url(#mask-2)"></path>
                            </g>
                        </g>
                        <path d="M15.2445309,10.2884342 L17.8227765,10.2909278 L23.2624179,23.0364541 L20.3370849,23.0339605 L19.177082,20.1946024 L13.7988866,20.1896152 L12.6322408,23.0264798 L9.78246988,23.0239862 L15.2445309,10.2884342 Z M18.1789978,17.735931 L16.4933816,13.632327 L14.7994618,17.7334374 L18.1789978,17.735931 Z" id="Fill-8" fill="#211F1F" fill-rule="nonzero"></path>
                        <path d="M25.2452175,10.3874294 L31.0601785,10.3924166 C32.6768755,10.3940789 33.9290475,10.8470796 34.7635521,11.6782734 C35.4735038,12.383957 35.8546358,13.378896 35.8538054,14.5716592 L35.8538054,14.6074005 C35.8513144,16.650475 34.7403023,17.9321759 33.1227749,18.5273107 L36.2258035,23.0481739 L32.9533829,23.0456804 L30.2339774,18.9944416 L28.0335423,18.9936104 L28.0293906,23.0406932 L25.2335926,23.0381996 L25.2452175,10.3874294 Z M30.8700277,16.5366014 C32.233467,16.5382638 33.0156594,15.8159564 33.0164898,14.7503659 L33.0164898,14.7137933 C33.0181505,13.5218614 32.1819852,12.9051155 30.8202065,12.9042843 L28.0393548,12.9017908 L28.0360334,16.534939 L30.8700277,16.5366014 Z" id="Fill-10" fill="#211F1F" fill-rule="nonzero"></path>
                        <polygon id="Fill-12" fill="#211F1F" fill-rule="nonzero" points="48.7205379 10.4093729 51.2987835 10.4118665 57.2524134 18.2059711 57.2598866 10.4168537 60.0191491 10.4201784 60.0083545 23.0701175 57.6302239 23.0684551 51.476479 15.0191739 51.4698362 23.0626367 48.7080826 23.0601431"></polygon>
                        <polygon id="Fill-14" fill="#211F1F" fill-rule="nonzero" points="40.6902786 12.9678707 36.8183433 12.9637147 36.8216647 10.3978193 47.360503 10.4077936 47.3580119 12.973689 43.4877373 12.9703642 43.4786035 23.0552391 40.6803144 23.0519143"></polygon>
                        <polygon id="Fill-16" fill="#211F1F" fill-rule="nonzero" points="62.3646467 10.4219239 71.9568828 10.4310671 71.9543917 12.9063623 65.1413466 12.8997128 65.1388556 15.4664393 71.1356638 15.4722577 71.1340031 17.947553 65.1363645 17.9425658 65.1338735 20.5990613 72.0390877 20.6048797 72.0365967 23.0810061 62.3521914 23.0726942"></polygon>
                        <path d="M74.5434319,10.4333113 L80.3583929,10.4391297 C81.9767505,10.4399608 83.2289226,10.8929615 84.0659183,11.7249865 C84.7708879,12.4298389 85.1528502,13.4247779 85.1511895,14.6175411 L85.1511895,14.6541136 C85.1495288,16.6963569 84.0410077,17.9780578 82.4209893,18.5731926 L85.5248482,23.0940558 L82.253258,23.0907311 L79.5330221,19.0403235 L77.3334174,19.0386611 L77.3292657,23.0865751 L74.531807,23.0840815 L74.5434319,10.4333113 Z M80.1699028,16.5833145 C81.5333421,16.5841457 82.3138738,15.8618383 82.3147042,14.7962478 L82.3147042,14.7596752 C82.3163649,13.5669121 81.4810299,12.9518286 80.1200816,12.9501662 L77.3392299,12.9476727 L77.3350782,16.5808209 L80.1699028,16.5833145 Z" id="Fill-18" fill="#211F1F" fill-rule="nonzero"></path>
                    </g>
                </g>
            </g>
        </g>
    </g>
</svg>