<?xml version="1.0" encoding="UTF-8"?>
<svg width="20px" height="20px" viewBox="0 0 20 20" version="1.1" xmlns="http://www.w3.org/2000/svg" xmlns:xlink="http://www.w3.org/1999/xlink">
    <!-- Generator: Sketch 55.2 (78181) - https://sketchapp.com -->
    <title>about-white</title>
    <desc>Created with Sketch.</desc>
    <g id="Designs-on-Invision" stroke="none" stroke-width="1" fill="none" fill-rule="evenodd">
        <g id="02)-Sidebar-dropdown" transform="translate(-406.000000, -396.000000)">
            <g id="about-white" transform="translate(407.000000, 397.000000)">
                <g id="Group" stroke="#FFFFFF">
                    <circle id="Oval" cx="9" cy="9" r="9"></circle>
                </g>
                <path d="M9.86425781,4 C10.1468113,4 10.3849274,4.09798079 10.5786133,4.29394531 C10.7722991,4.48990983 10.8691406,4.72688663 10.8691406,5.00488281 C10.8691406,5.28287899 10.7711598,5.51985579 10.5751953,5.71582031 C10.3792308,5.91178483 10.142254,6.00976562 9.86425781,6.00976562 C9.59081895,6.00976562 9.35612077,5.91178483 9.16015625,5.71582031 C8.96419173,5.51985579 8.86621094,5.28287899 8.86621094,5.00488281 C8.86621094,4.72688663 8.96305242,4.48990983 9.15673828,4.29394531 C9.35042415,4.09798079 9.58626163,4 9.86425781,4 Z M10.2880859,7.14453125 L8.88671875,12.0048828 C8.8092444,12.282879 8.77050781,12.4651688 8.77050781,12.5517578 C8.77050781,12.6018883 8.79101542,12.6486 8.83203125,12.6918945 C8.87304708,12.735189 8.91634092,12.7568359 8.96191406,12.7568359 C9.03938841,12.7568359 9.11686159,12.7226566 9.19433594,12.6542969 C9.39941509,12.4856762 9.64550638,12.1803408 9.93261719,11.7382812 L10.1650391,11.875 C9.47688458,13.0735737 8.74544658,13.6728516 7.97070312,13.6728516 C7.67447769,13.6728516 7.4386402,13.5896818 7.26318359,13.4233398 C7.08772699,13.2569979 7,13.0462252 7,12.7910156 C7,12.622395 7.03873659,12.4082044 7.11621094,12.1484375 L8.06640625,8.88085938 C8.15755254,8.56640468 8.203125,8.32942788 8.203125,8.16992188 C8.203125,8.06966096 8.15983116,7.98079466 8.07324219,7.90332031 C7.98665321,7.82584597 7.86816481,7.78710938 7.71777344,7.78710938 C7.64941372,7.78710938 7.56738329,7.789388 7.47167969,7.79394531 L7.56054688,7.52050781 L9.87792969,7.14453125 L10.2880859,7.14453125 Z" id="i" fill="#FFFFFF" fill-rule="nonzero"></path>
            </g>
        </g>
    </g>
</svg>