<?xml version="1.0" encoding="utf-8"?>
<!-- Generator: Adobe Illustrator 22.0.0, SVG Export Plug-In . SVG Version: 6.00 Build 0)  -->
<svg version="1.1" id="Layer_1" xmlns="http://www.w3.org/2000/svg" xmlns:xlink="http://www.w3.org/1999/xlink" x="0px" y="0px"
	 width="69px" height="69px" viewBox="0 0 69 69" style="enable-background:new 0 0 69 69;" xml:space="preserve">
<style type="text/css">
	.st0{fill:#FF5F00;}
</style>
<path class="st0" d="M15.6634712,39.8287849c-1.1852436,0.068325-2.6304111-0.0316734-4.0151749-0.6145477
	c-3.31674-1.3960838-5.3450823-4.760685-5.0206757-8.3588543c0.3178835-3.5258179,2.9743891-6.5209179,6.4452305-7.2620125
	c1.2728519-0.2717819,2.5648632-0.1641235,3.8500652-0.1742363c0.359993-0.0028324,0.8377037-0.163805,1.0479317,0.0718708
	c0.17766,0.1991673,0.0615921,0.6661491,0.0639305,1.014679c0.0046673,0.6957436,0.0010185,0.6811104-0.7178841,0.6989918
	c-1.2703037,0.0315971-2.5486279-0.1215305-3.8097115,0.1300125c-3.0393639,0.606245-5.2603636,3.4374523-5.1339836,6.5317249
	c0.1277409,3.1276207,2.5260868,5.7560539,5.6028061,6.1320953c1.2247047,0.1496849,2.4557762,0.0552979,3.6837616,0.0644188
	c0.303009,0.0022469,0.4097557,0.0657158,0.3834496,0.3806381c-0.0303555,0.3634148-0.020216,0.7319565-0.0022469,1.097023
	c0.0111866,0.2273102-0.0547237,0.3003654-0.2890549,0.2938004C17.1522293,39.8175926,16.5517578,39.8287849,15.6634712,39.8287849z
	"/>
<path class="st0" d="M20.0193157,41.6004181c0.579071,0,1.1328449,0.0035324,1.6865139-0.0025291
	c0.1351242-0.0014801,0.2222977,0.0389442,0.2676315,0.1684189c0.6067219,1.7327423,1.4219246,3.3955612,1.8737144,5.1770592
	c0.5118179,2.0182037-0.9308758,3.8294525-3.0086899,3.8625603c-1.5070953,0.0240173-3.0149364-0.0018234-4.5223064,0.011055
	c-0.2596817,0.0022163-0.3062267-0.0845757-0.3055973-0.3215714c0.0076275-2.8685799,0.0083389-5.7371979-0.000906-8.6057663
	c-0.0008202-0.2545052,0.0755634-0.3212738,0.3183022-0.3088493c0.3795376,0.0194168,0.7625008,0.0272293,1.1407833-0.0019417
	c0.2951031-0.0227547,0.3245087,0.1023903,0.3235569,0.3504639c-0.0085812,2.2392311,0.0016155,4.47855-0.0125427,6.7177238
	c-0.0020027,0.316906,0.0580692,0.4288254,0.4007244,0.4155273c0.8183804-0.0317421,1.6394653,0.0059052,2.4578094-0.0263443
	c1.2802391-0.0504532,1.8209362-0.8801613,1.3716106-2.0981712c-0.6204948-1.6819992-1.2613297-3.3564911-1.8925171-5.0345497
	C20.0823269,41.8102531,20.0557632,41.7138023,20.0193157,41.6004181z"/>
<path class="st0" d="M55.8193436,32.1996841c1.7544441,0,3.5090103,0.0104294,5.263237-0.0090027
	c0.3415031-0.0037804,0.4348679,0.0998993,0.4026222,0.418354c-0.0451126,0.445591,0.1861992,1.026638-0.0950775,1.304966
	c-0.2595291,0.2568092-0.8342438,0.0694962-1.2695236,0.0702438c-3.187233,0.0054817-6.3745193-0.0039444-9.5616798,0.0121689
	c-0.3750153,0.0018959-0.4883118-0.1046371-0.4457207-0.4638977c0.0510025-0.4302025-0.1817932-0.9925842,0.0926933-1.262413
	c0.2519073-0.2476349,0.8065605-0.0653992,1.2273521-0.067543C52.8952484,32.1951103,54.3573036,32.1996841,55.8193436,32.1996841z"
	/>
<path class="st0" d="M51.066925,29.2073154c-0.0938683-0.1177349-0.1713486-0.2250652-0.2591362-0.3231773
	c-0.2982864-0.3333549-0.8736038-0.6084194-0.8588562-0.9737301c0.0131416-0.32547,0.5478897-0.6328239,0.8577232-0.9428978
	c2.2445831-2.2463284,4.4938164-4.4880333,6.7310104-6.7416992c0.229229-0.2309151,0.3711205-0.2939682,0.6021996-0.0114098
	c0.230442,0.2817783,0.4997101,0.53545,0.7737846,0.7766361c0.1845284,0.1623878,0.1485634,0.2564411-0.0079575,0.4124622
	c-2.5392036,2.531086-5.0725899,5.0680046-7.6079597,7.6029358C51.2398262,29.064333,51.1741409,29.1144562,51.066925,29.2073154z"
	/>
<path class="st0" d="M51.1017075,36.9842339c1.4031792,1.4071312,2.776165,2.7854004,4.1507721,4.1620483
	c1.1991501,1.2009239,2.396637,2.403553,3.60392,3.5962601c0.1886063,0.1863365,0.2547874,0.3028221,0.0158272,0.5080109
	c-0.3537407,0.3037491-0.6536407,0.8801727-1.0123024,0.9100304c-0.3694649,0.0307617-0.6791954-0.5645447-1.0079498-0.8919716
	c-2.2390823-2.2300301-4.467392-4.4709053-6.7121658-6.6951675c-0.2413864-0.2391853-0.2639961-0.3692551-0.0031815-0.5998917
	C50.4748764,37.6744347,50.7709618,37.3276405,51.1017075,36.9842339z"/>
<path class="st0" d="M43.8656387,34.9561729c0-0.0585327,0.0076752-0.1182594-0.0012131-0.175415
	c-0.0718307-0.4619255,0.0399132-0.6875496,0.5838203-0.7847824c0.8887825-0.158886,1.4821701-1.0724792,1.4449768-1.9962063
	c-0.0380402-0.9449215-0.7214813-1.7361431-1.7022362-1.8899841c-0.2968178-0.0465603-0.3425713-0.1513214-0.3294334-0.4021454
	c0.016819-0.3210564,0.0401764-0.6487827-0.0045929-0.9643707c-0.0630493-0.4444122,0.1513824-0.4607868,0.4943085-0.4249039
	c1.810997,0.1894932,3.2094688,1.7213554,3.3265991,3.6617889c0.1046143,1.7330494-1.2173996,3.4443645-2.9404564,3.8063564
	C43.8656387,35.9696617,43.8656387,35.9696579,43.8656387,34.9561729z"/>
<path class="st0" d="M41.9468994,17.248291c0-0.145813-0.0092163-0.291687-0.0140991-0.437561c-0.0292969,0-0.0585327,0-0.0878296,0
	c0.020874,0.0778809-0.0476074,0.0965576-0.0900269,0.1245728c-3.1221924,2.0606079-6.4330444,3.717041-10.0270386,4.8041382
	c-3.7658081,1.1390381-7.6037598,1.7230835-11.5368042,1.6685181c-0.3116455-0.0043335-0.4220581,0.0505981-0.4212646,0.397583
	c0.0126343,5.2262573,0.0102539,10.4525757,0.0040283,15.678833c-0.0003052,0.2463379,0.0264282,0.3631592,0.3221436,0.3532715
	c0.510376-0.0171509,1.022522,0.0280762,1.5341187,0.0344849c4.1626587,0.0518188,8.1738281,0.9076538,12.0761719,2.3077393
	c2.5369263,0.9102173,4.9200439,2.1397705,7.1865234,3.5966797c0.3355713,0.2157593,0.6757202,0.4244385,1.0546875,0.6621094
	c0-0.175415,0-0.2776489,0-0.3798218C41.9475098,36.4553223,41.9475708,26.8518066,41.9468994,17.248291z M40.1576538,43.1679077
	c-0.130249,0.0613403-0.2130737-0.0535889-0.3045654-0.1049805c-5.2451782-2.9447632-10.8851929-4.5319214-16.8759766-4.9163208
	c-0.3500977-0.0224609-0.7007446-0.0712891-1.0499878-0.0623169c-0.2957764,0.0076294-0.3914795-0.0668945-0.3855591-0.3835449
	c0.0220947-1.1853027,0.0088501-2.3712769,0.0088501-3.5569458c0-2.8544922,0.0050049-5.7089233-0.0072021-8.5633545
	c-0.0012817-0.3129272,0.0546265-0.4075928,0.397583-0.4199219c3.7289429-0.1339111,7.3655396-0.7805176,10.9248657-1.918335
	c2.4434814-0.7811279,4.7627563-1.8197632,7.0037231-3.052124c0.0835571-0.0459595,0.15271-0.1418457,0.288269-0.1055908
	C40.1576538,27.7763672,40.1576538,35.4696655,40.1576538,43.1679077z"/>
</svg>
