<?xml version="1.0" encoding="utf-8"?>
<!-- Generator: Adobe Illustrator 22.0.0, SVG Export Plug-In . SVG Version: 6.00 Build 0)  -->
<svg version="1.1" id="Layer_1" xmlns="http://www.w3.org/2000/svg" xmlns:xlink="http://www.w3.org/1999/xlink" x="0px" y="0px"
	 width="69px" height="69px" viewBox="0 0 69 69" style="enable-background:new 0 0 69 69;" xml:space="preserve">
<style type="text/css">
	.st0{fill:#FF5F00;}
</style>
<path class="st0" d="M40.6216812,37.5169983c1.841774,3.540535,0.8202286,5.9895325-3.0495033,7.3254814
	c2.1177559,2.8032265,0.5956955,6.7560349-2.847271,7.3853874c0.6831245,0.8960419,1.0304604,1.8911896,1.008709,3.0227585
	c-0.0443573,2.3075752-2.042675,4.3877983-4.3531685,4.3910675c-3.4848614,0.0049286-6.9714775,0.1037178-10.4548225-0.0793648
	c-2.3259735-0.1222572-4.625782-0.4770012-6.9276667-0.8110237c-2.5444202-0.3692017-5.0897741-0.7319756-7.6347446-1.0973816
	c-0.0429335-0.0061607-0.0860686-0.0125809-0.1293125-0.0146446c-0.3734474-0.0178261-0.6455054-0.1080437-0.460722-0.5788803
	c0.0462222-0.1177711,0.0390491-0.2559433,0.0606699-0.3840218c0.1472654-0.8723907,0.1468749-0.8670807,1.025053-0.7402306
	c3.7310829,0.5389519,7.4598694,1.0950241,11.1952686,1.6023293c1.7605591,0.2390976,3.5378876,0.3451767,5.3155708,0.3586731
	c2.58951,0.0196457,5.1793022,0.011631,7.7689323,0.0024414c1.4385662-0.0051079,2.5657864-1.0012245,2.810545-2.4513779
	c0.2128296-1.2610016-0.5997124-2.5741577-1.8702469-3.0297203c-0.3315315-0.1188698-0.6719913-0.1604691-1.0215702-0.1592102
	c-0.6944256,0.0025063-1.3890324-0.008049-2.0832043,0.005455c-0.2456875,0.0047798-0.3832359-0.0328178-0.3526421-0.3244209
	c0.0491333-0.4683037-0.1964588-1.0716858,0.097477-1.3725052c0.2552395-0.261219,0.8529148-0.0682831,1.2988834-0.0708275
	c1.3164864-0.0075111,2.6330776,0.0032959,3.949564-0.0042572c1.5345459-0.0088081,2.7701645-1.2068214,2.8170052-2.717926
	c0.0471191-1.5201225-1.0894279-2.8136101-2.6291962-2.8826447c-1.4292068-0.0640793-2.8628807-0.0244942-4.2944298-0.0428085
	c-0.4010372-0.0051308-0.9471321,0.1803398-1.1627979-0.0800095c-0.2018948-0.243721-0.0621948-0.7704964-0.0725136-1.1727104
	c-0.001112-0.0433769,0.0058651-0.0877914-0.0011063-0.130043c-0.0498257-0.3018303,0.0686741-0.3916855,0.3766613-0.386776
	c1.157093,0.0184593,2.3146591,0.0073929,3.4720497,0.0073929c1.4756699,0,2.9513435,0.001194,4.4270134-0.0003242
	c1.6016541-0.0016441,2.8591003-1.2302132,2.8647957-2.7961807c0.0056534-1.5540237-1.2608109-2.8105736-2.8570824-2.8144226
	c-2.7343178-0.0065918-5.4687347-0.0116005-8.2029114,0.0089951c-0.3980427,0.0029984-0.5002918-0.1124763-0.4619102-0.4819527
	c0.031229-0.3005676,0.0247593-0.6084099,0.0010834-0.9103699c-0.0228882-0.2918854,0.0544949-0.4343224,0.3726959-0.387722
	c0.141634,0.0207481,0.2888336,0.0035019,0.433506,0.0035019c6.6839256,0,13.3678474,0.001255,20.0517731-0.0009117
	c1.5951424-0.0005188,2.8561058-1.1139908,2.9463196-2.5885086c0.1035995-1.693531-1.1960106-3.0507736-2.9334908-3.0518036
	c-4.6150894-0.0027351-9.2301826-0.0009308-13.8452721-0.0009308c-4.3980808,0-8.7961674-0.0033054-13.1942234,0.0068092
	c-0.3219662,0.0007381-0.4640999-0.0544434-0.4310284-0.4140739c0.0394516-0.4290409-0.1465816-1.0153084,0.0713825-1.2555428
	c0.2504692-0.2760582,0.8430157-0.0841618,1.2859955-0.0843906c8.7093544-0.0045223,17.4187107-0.0035896,26.1280651-0.0032349
	c2.7792702,0.0001125,4.8690262,2.2401123,4.6633911,4.9969921c-0.1727104,2.3155785-2.214325,4.153038-4.639534,4.1596413
	c-2.6909103,0.007328-5.381855,0.0007896-8.0727844,0.0040245C40.9291801,37.4769783,40.7690811,37.4333038,40.6216812,37.5169983z"
	/>
<path class="st0" d="M23.8384991,26.57547c-0.0005779-5.4531937,0.002676-10.9063988-0.010088-16.3595657
	c-0.0008793-0.3761187,0.0864258-0.4856892,0.476696-0.4853554c12.7578697,0.010891,25.5157547,0.0108509,38.273632,0.0003414
	c0.3978615-0.0003271,0.5034676,0.1039143,0.5029564,0.5025206c-0.0114403,8.924716-0.0088234,17.8494492-0.0083618,26.7741814
	c0.0000038,0.1445503,0.0061836,0.2890968,0.0094833,0.433651c-0.0000038,0-0.0003853,0.0000916-0.0003853,0.0000916
	c-0.1395874,0.0562248-0.2858124,0.0299759-0.4287872,0.0300598c-2.8457756,0.0016899-5.6915627,0.0039864-8.5372963-0.0072136
	c-0.135231-0.0005341-0.3588181,0.1488419-0.4249115-0.1296082c0.4016914-0.4359474,0.7893448-0.8855782,1.0476303-1.4230957
	c0.1092796-0.2274284,0.2803001-0.2028923,0.4641762-0.202877c1.909153,0.0001755,3.8183823-0.0086632,5.7273903,0.0081978
	c0.3432808,0.0030289,0.4593124-0.0570107,0.4586868-0.4361382c-0.0128212-7.7956905-0.0129814-15.5914173,0.000164-23.3871078
	c0.0006638-0.3929529-0.1079674-0.4695511-0.4810562-0.4692183c-11.6284752,0.0103645-23.2569695,0.0103798-34.8854446,0.000205
	c-0.385973-0.0003376-0.5043678,0.082675-0.5030117,0.4907389c0.0157547,4.743907,0.0059643,9.487895,0.0184288,14.231822
	c0.0009308,0.3531227-0.0706234,0.4894581-0.4441242,0.4546967C24.6784668,26.5630989,24.2573223,26.5817719,23.8384991,26.57547z"
	/>
<path class="st0" d="M52.7367744,27.6636353c1.4878349-1.4581451,2.2013931-3.1827049,2.1032486-5.2435722
	c-0.1398697-2.9371986-2.5850372-5.6021366-5.5024872-6.0000725c-1.532444-0.2090225-2.9533958,0.0669193-4.2948151,0.8271885
	c-0.2604446,0.1476116-0.3002167,0.2382565-0.1071167,0.4951191c1.9684792,2.6184387,2.2657471,5.4441395,1.021656,8.4570732
	c-0.1194496,0.2892838-0.2661629,0.4238911-0.6000137,0.4036102c-0.5318794-0.0323143-1.0671539-0.0086346-1.6622353-0.0086346
	c0.8472862-1.2471924,1.2954178-2.5775909,1.2336998-4.0513954c-0.0612106-1.4617195-0.5770302-2.7495708-1.5041885-3.8837357
	c-1.8780022,1.8830395-2.0433731,4.7067451-0.4545097,7.9348068c-0.6228485,0-1.2226906-0.0071449-1.822216,0.0034561
	c-0.2458534,0.0043468-0.2679596-0.1895695-0.3296242-0.3353653c-1.2426987-2.9381847-0.9481583-5.7154751,0.8927002-8.3221645
	c0.3703918-0.5244827,0.3821945-0.5161476-0.2065048-0.8369503c-4.0687294-2.217186-9.2258263,0.6815166-9.4397545,5.2945061
	c-0.0701904,1.5135441,0.3255005,2.8781471,1.2330704,4.1940231c-0.6967659,0-1.334034,0.0038033-1.9712048-0.0025806
	c-0.1665306-0.0016689-0.1787224-0.1651554-0.233448-0.2764568c-2.3219967-4.7224884,0.5530605-10.5183687,5.7315578-11.5498934
	c2.265583-0.4512892,4.3633423-0.0290823,6.2751999,1.2618933c0.2493935,0.1684017,0.3889923,0.1532402,0.6252136-0.0049973
	c4.3702888-2.9275217,10.2064476-1.1824102,12.2513313,3.6546631c1.2789612,3.0253105,0.590435,6.6249104-1.709156,8.9576569
	c-0.1373978,0.1393795-0.2315407,0.2302513-0.3995895,0.0220509C53.5573387,28.2694778,53.1627541,27.972147,52.7367744,27.6636353z
	"/>
<path class="st0" d="M22.0573254,16.5611992c0,0.7067451-0.00173,1.3525486,0.0011673,1.9983292
	c0.0007629,0.1698799-0.1246071,0.2523575-0.224678,0.351757c-4.9770756,4.9437523-9.9549007,9.8867493-14.9326525,14.8298225
	c-0.0410581,0.0407715-0.0879526,0.0771141-0.122407,0.1228485c-0.224412,0.2978706-0.4257793,0.3027039-0.6605377-0.0064087
	c-0.1736317-0.2286224-0.3788433-0.4414177-0.6014462-0.622612c-0.2751179-0.223938-0.2779493-0.366291-0.0114884-0.6288528
	c2.9773364-2.9337444,5.9390283-5.8833618,8.9065571-8.8270683c2.1563473-2.1390362,4.3151283-4.2756176,6.4728165-6.4132996
	C21.2119064,17.041502,21.5804482,16.7802658,22.0573254,16.5611992z"/>
</svg>
