<?xml version="1.0" encoding="utf-8"?>
<!-- Generator: Adobe Illustrator 22.0.0, SVG Export Plug-In . SVG Version: 6.00 Build 0)  -->
<svg version="1.1" id="Layer_1" xmlns="http://www.w3.org/2000/svg" xmlns:xlink="http://www.w3.org/1999/xlink" x="0px" y="0px"
	 width="69px" height="69px" viewBox="0 0 69 69" style="enable-background:new 0 0 69 69;" xml:space="preserve">
<style type="text/css">
	.st0{fill:#FF5F00;}
</style>
<path class="st0" d="M56.1718521,34.6318398c0,8.3892517-0.0033722,16.7785149,0.0097351,25.1677437
	c0.0006714,0.4287682-0.0668411,0.5733643-0.5431061,0.5726395c-10.6388359-0.0161324-21.2776985-0.0154266-31.9165382-0.0015488
	c-0.4428234,0.0005722-0.5732574-0.1270599-0.5237103-0.5441589c0.0529289-0.4455948-0.1919174-1.0439301,0.1001797-1.3014755
	c0.2496567-0.2201233,0.8323059-0.0708084,1.267664-0.0708847c9.7327862-0.0015717,19.4655704-0.0041962,29.1983433,0.0088997
	c0.4243393,0.0005722,0.5272369-0.1028137,0.5269127-0.5272064c-0.0119247-15.5443268-0.0123405-31.088665,0.0015831-46.632988
	c0.0004044-0.4488783-0.1385803-0.5149059-0.5397949-0.514307c-7.6706009,0.0114803-15.3412361,0.0051098-23.0118332,0.0179729
	c-0.4035187,0.0006771-0.5646877-0.0796938-0.5143661-0.5063457c0.0526295-0.4462128-0.1816101-1.0412693,0.0811615-1.3118515
	c0.286396-0.2949018,0.8862648-0.0935984,1.3480206-0.0939388c7.9986897-0.0059013,15.997385-0.0003605,23.9960575-0.0148401
	c0.4355469-0.0007887,0.5298157,0.1177626,0.5291824,0.5376768C56.1686478,17.8220825,56.1718521,26.226965,56.1718521,34.6318398z"
	/>
<path class="st0" d="M27.8908691,7.0986938c-4.9836426,0.0157471-9.9674072,0.0167236-14.9509888-0.0010376
	c-0.4449463-0.0015869-0.527832,0.132019-0.5272827,0.5449829c0.0115356,8.9987183,0.0087891,17.9974976,0.0087891,26.9962769
	c0,8.9987183,0.0029297,17.9974976-0.0095215,26.9962769c-0.0005493,0.4068604,0.086792,0.5206299,0.5089722,0.5170898
	c2.6400757-0.0220947,5.2805176-0.0228271,7.9205933,0.0002441c0.4428711,0.0039062,0.52771-0.1292114,0.5271606-0.5437012
	c-0.0119019-8.8737793-0.0117188-17.7475586-0.0065308-26.6213379c0.0009155-1.5704956,0.3873291-3.0578003,1.1125488-4.4459839
	c1.3260498-2.5383301,2.6420898-5.0828857,4.0248413-7.5903931c1.1506958-2.0866089,1.8817749-4.2714844,1.8892212-6.6682129
	c0.0090332-2.8901978-0.0072632-5.7805176,0.0126953-8.6705933C28.4042358,7.1998291,28.305542,7.0973511,27.8908691,7.0986938z
	 M26.4468994,16.9059448c-0.0391235,1.9182129-0.7993164,3.6234131-1.7020264,5.2837524
	c-1.368103,2.5163574-2.7141113,5.0454102-4.0256958,7.5916138c-0.8165894,1.5852661-1.2561035,3.2955933-1.2595825,5.0819702
	c-0.0160522,8.2783813-0.0117188,16.5567627,0.0050659,24.835083c0.0009155,0.4660034-0.1264038,0.5567017-0.5643311,0.546936
	c-1.3738403-0.0305176-2.7490234-0.0249023-4.1231689-0.0020142c-0.3656616,0.0060425-0.4579468-0.0887451-0.4574585-0.4564209
	c0.0112915-8.4033203,0.008728-16.8066406,0.008728-25.2099609c0-8.3564453,0.0036621-16.7129517-0.0108643-25.069397
	c-0.0007324-0.4180908,0.1047974-0.5036011,0.5087891-0.501709c3.7330322,0.0170898,7.4661255,0.0146484,11.1991577,0.0026245
	c0.3502808-0.0011597,0.4724121,0.0656128,0.4680786,0.449646C26.4655151,11.9405518,26.4974976,14.4240723,26.4468994,16.9059448z"
	/>
<path class="st0" d="M46.7185669,34.3407593c1.2875366-1.6932983,1.9269409-3.6142578,1.9509888-5.7800903
	c-0.0221558-0.4123535-0.0310669-0.8629761-0.0880127-1.3145142c-0.6958008-5.5155029-6.1751099-9.3667603-11.59021-8.1373291
	c-6.9125366,1.569397-9.8662109,9.4596558-5.6848145,15.2045898c0.178833,0.2456665,0.1665649,0.3910522-0.0095825,0.6312866
	c-1.6188965,2.2080688-2.225647,4.6687622-1.7802124,7.3768921c0.9140015,5.5569458,6.5124512,9.178894,11.9385986,7.727356
	c6.6434937-1.7772217,9.3800049-9.5906982,5.2883911-15.1160889C46.5837402,34.7167969,46.5335693,34.5841064,46.7185669,34.3407593
	z M31.2663574,28.5440063c0.008728-3.9126587,3.0893555-7.3287964,6.8545532-7.7084961
	c4.2045288-0.4240112,7.8609009,2.4311523,8.5427246,6.4264526c0.3516846,2.06073-0.1143188,3.958252-1.2808228,5.6914062
	c-0.1663208,0.2471313-0.2716675,0.2727661-0.5236816,0.0830078c-3.4932861-2.6300049-8.1082764-2.6480713-11.6134644-0.0430908
	c-0.2926025,0.2174072-0.4209595,0.2093506-0.6262207-0.0962524C31.7681885,31.6293945,31.2630005,30.052002,31.2663574,28.5440063z
	 M43.526123,34.8366089c-1.3525391,0.9557495-2.8556519,1.4349976-4.4960327,1.4637451
	c-1.6470337-0.0292969-3.1375122-0.5004272-4.4796753-1.4415283c-0.2199707-0.1542358-0.3193359-0.2314453-0.0299683-0.4509888
	c2.5306396-1.9199829,6.4745483-1.9172974,9.017334,0.0119629C43.77948,34.6031494,43.7474365,34.6802368,43.526123,34.8366089z
	 M39.3863525,48.4506226c-3.9177856,0.2608643-7.5582886-2.7838135-8.0517578-6.7633667
	c-0.2436523-1.9645996,0.2168579-3.770752,1.3397217-5.4090576c0.1612549-0.2352295,0.2494507-0.2561646,0.4919434-0.0778809
	c3.6373291,2.6739502,8.104248,2.6679688,11.7289429-0.0125732c0.2191772-0.1621094,0.3101807-0.1464844,0.4589233,0.0686035
	c0.9318237,1.34729,1.4024048,2.8375244,1.4259033,4.5592651C46.7528076,44.8444824,43.5661011,48.1724243,39.3863525,48.4506226z"
	/>
</svg>
