<?xml version="1.0" encoding="UTF-8"?>
<svg width="20px" height="20px" viewBox="0 0 20 20" version="1.1" xmlns="http://www.w3.org/2000/svg" xmlns:xlink="http://www.w3.org/1999/xlink">
    <!-- Generator: Sketch 55.2 (78181) - https://sketchapp.com -->
    <title>commnity-white</title>
    <desc>Created with Sketch.</desc>
    <g id="Designs-on-Invision" stroke="none" stroke-width="1" fill="none" fill-rule="evenodd">
        <g id="02)-Sidebar-dropdown" transform="translate(-407.000000, -564.000000)">
            <g id="commnity-white" transform="translate(407.000000, 564.000000)">
                <path d="M9.6,5.52282362 C10.993317,5.52282362 12.1228236,4.39331701 12.1228236,3 C12.1228236,1.60668299 10.993317,0.477176378 9.6,0.477176378 C8.20668299,0.477176378 7.07717638,1.60668299 7.07717638,3 C7.07717638,4.39331701 8.20668299,5.52282362 9.6,5.52282362 Z M16.1,12.5228236 C17.493317,12.5228236 18.6228236,11.393317 18.6228236,10 C18.6228236,8.60668299 17.493317,7.47717638 16.1,7.47717638 C14.706683,7.47717638 13.5771764,8.60668299 13.5771764,10 C13.5771764,11.393317 14.706683,12.5228236 16.1,12.5228236 Z M3,12.5228236 C4.39331701,12.5228236 5.52282362,11.393317 5.52282362,10 C5.52282362,8.60668299 4.39331701,7.47717638 3,7.47717638 C1.60668299,7.47717638 0.477176378,8.60668299 0.477176378,10 C0.477176378,11.393317 1.60668299,12.5228236 3,12.5228236 Z M9.6,19.5228236 C10.993317,19.5228236 12.1228236,18.393317 12.1228236,17 C12.1228236,15.606683 10.993317,14.4771764 9.6,14.4771764 C8.20668299,14.4771764 7.07717638,15.606683 7.07717638,17 C7.07717638,18.393317 8.20668299,19.5228236 9.6,19.5228236 Z" id="Combined-Shape" stroke="#FFFFFF" stroke-width="0.954352756"></path>
                <path d="M12.5964409,16.8525735 C12.5801874,16.5166948 12.5086972,16.1953119 12.3908587,15.8973132 C13.7059025,15.2738778 14.779174,14.2235366 15.4316778,12.925285 C15.6465922,12.9741804 15.8702809,13 16.1,13 C16.2219592,13 16.3422185,12.9927225 16.4603676,12.978578 C15.708756,14.7073267 14.3228459,16.096593 12.5964409,16.8525735 Z M16.4603676,7.02142198 C16.3422185,7.00727752 16.2219592,7 16.1,7 C15.8702809,7 15.6465922,7.02581956 15.4316778,7.07471496 C14.779174,5.77646341 13.7059025,4.72612223 12.3908587,4.1026868 C12.5086972,3.80468807 12.5801874,3.48330516 12.5964409,3.14742652 C14.3228459,3.90340702 15.708756,5.29267335 16.4603676,7.02142198 Z M6.60355912,3.14742652 C6.61981257,3.48330516 6.69130278,3.80468807 6.80914129,4.1026868 C5.48676941,4.72959635 4.40887186,5.78818279 3.75745312,7.09644169 C3.51549594,7.0334988 3.26166,7 3,7 C2.91386535,7 2.82857853,7.00363003 2.74428419,7.01074546 C3.4969539,5.28695377 4.88070956,3.90185011 6.60355912,3.14742652 Z M2.74428419,12.9892545 C2.82857853,12.99637 2.91386535,13 3,13 C3.26166,13 3.51549594,12.9665012 3.75745312,12.9035583 C4.40887186,14.2118172 5.48676941,15.2704037 6.80914129,15.8973132 C6.69130278,16.1953119 6.61981257,16.5166948 6.60355912,16.8525735 C4.88070956,16.0981499 3.4969539,14.7130462 2.74428419,12.9892545 Z" id="Combined-Shape" fill="#FFFFFF" fill-rule="nonzero"></path>
            </g>
        </g>
    </g>
</svg>