<?xml version="1.0" encoding="UTF-8"?>
<svg width="22px" height="15px" viewBox="0 0 22 15" version="1.1" xmlns="http://www.w3.org/2000/svg" xmlns:xlink="http://www.w3.org/1999/xlink">
    <!-- Generator: Sketch 55.2 (78181) - https://sketchapp.com -->
    <title>credit-card-white</title>
    <desc>Created with Sketch.</desc>
    <g id="Page-1" stroke="none" stroke-width="1" fill="none" fill-rule="evenodd">
        <g id="Artboard" transform="translate(-1678.000000, -992.000000)" fill="#FFFFFF" fill-rule="nonzero">
            <g id="credit-card-white" transform="translate(1678.000000, 992.000000)">
                <path d="M14.9395,7.5076 C14.7145,7.8476 14.5825,8.2546 14.5825,8.6946 C14.5825,9.1326 14.7145,9.5396 14.9395,9.8806 C15.1665,9.5396 15.2975,9.1326 15.2975,8.6946 C15.2975,8.2546 15.1665,7.8476 14.9395,7.5076 L14.9395,7.5076 Z M13.1505,6.5456 C11.9655,6.5456 11.0015,7.5086 11.0015,8.6946 C11.0015,9.8786 11.9655,10.8416 13.1505,10.8416 C13.5225,10.8416 13.8735,10.7466 14.1785,10.5796 C13.7885,10.0516 13.5565,9.3996 13.5565,8.6946 C13.5565,7.9876 13.7885,7.3356 14.1785,6.8086 C13.8735,6.6406 13.5225,6.5456 13.1505,6.5456 L13.1505,6.5456 Z M15.7025,10.5796 C16.0065,10.7466 16.3575,10.8416 16.7305,10.8416 C17.9155,10.8416 18.8785,9.8786 18.8785,8.6946 C18.8785,7.5086 17.9155,6.5456 16.7305,6.5456 C16.3575,6.5456 16.0065,6.6406 15.7025,6.8086 C16.0925,7.3356 16.3245,7.9876 16.3245,8.6946 C16.3245,9.3996 16.0925,10.0516 15.7025,10.5796 L15.7025,10.5796 Z M16.7305,11.8666 C16.0665,11.8666 15.4505,11.6626 14.9395,11.3136 C14.4295,11.6626 13.8145,11.8666 13.1505,11.8666 C11.3995,11.8666 9.9765,10.4436 9.9765,8.6946 C9.9765,6.9436 11.3995,5.5206 13.1505,5.5206 C13.8145,5.5206 14.4295,5.7246 14.9395,6.0746 C15.4505,5.7246 16.0665,5.5206 16.7305,5.5206 C18.4795,5.5206 19.9045,6.9436 19.9045,8.6946 C19.9045,10.4436 18.4795,11.8666 16.7305,11.8666 L16.7305,11.8666 Z M2.5095,1.0256 C1.6915,1.0256 1.0255,1.6916 1.0255,2.5096 L1.0255,11.8476 C1.0255,12.6656 1.6915,13.3316 2.5095,13.3316 L19.4905,13.3316 C20.3085,13.3316 20.9745,12.6656 20.9745,11.8476 L20.9745,2.5096 C20.9745,1.6916 20.3085,1.0256 19.4905,1.0256 L2.5095,1.0256 Z M19.4905,14.3576 L2.5095,14.3576 C1.1255,14.3576 0.0005,13.2316 0.0005,11.8476 L0.0005,2.5096 C0.0005,1.1256 1.1255,0.0006 2.5095,0.0006 L19.4905,0.0006 C20.8745,0.0006 22.0005,1.1256 22.0005,2.5096 L22.0005,11.8476 C22.0005,13.2316 20.8745,14.3576 19.4905,14.3576 L19.4905,14.3576 Z" id="icon"></path>
            </g>
        </g>
    </g>
</svg>