<?xml version="1.0" encoding="UTF-8"?>
<svg width="23px" height="16px" viewBox="0 0 23 16" version="1.1" xmlns="http://www.w3.org/2000/svg" xmlns:xlink="http://www.w3.org/1999/xlink">
    <!-- Generator: Sketch 55.2 (78181) - https://sketchapp.com -->
    <title>credit-card-gray-23x15</title>
    <desc>Created with Sketch.</desc>
    <g id="Page-1" stroke="none" stroke-width="1" fill="none" fill-rule="evenodd">
        <g id="Artboard" transform="translate(-1678.000000, -1071.000000)" fill="#B1ADA6" fill-rule="nonzero">
            <path d="M1693.61855,1078.84883 C1693.38332,1079.20428 1693.24532,1079.62978 1693.24532,1080.08978 C1693.24532,1080.54769 1693.38332,1080.97319 1693.61855,1081.32969 C1693.85586,1080.97319 1693.99282,1080.54769 1693.99282,1080.08978 C1693.99282,1079.62978 1693.85586,1079.20428 1693.61855,1078.84883 L1693.61855,1078.84883 Z M1691.74823,1077.8431 C1690.50936,1077.8431 1689.50155,1078.84987 1689.50155,1080.08978 C1689.50155,1081.3276 1690.50936,1082.33437 1691.74823,1082.33437 C1692.13714,1082.33437 1692.50409,1082.23505 1692.82295,1082.06046 C1692.41523,1081.50846 1692.17268,1080.82683 1692.17268,1080.08978 C1692.17268,1079.35065 1692.41523,1078.66901 1692.82295,1078.11805 C1692.50409,1077.94242 1692.13714,1077.8431 1691.74823,1077.8431 L1691.74823,1077.8431 Z M1694.41623,1082.06046 C1694.73405,1082.23505 1695.101,1082.33437 1695.49095,1082.33437 C1696.72982,1082.33437 1697.73659,1081.3276 1697.73659,1080.08978 C1697.73659,1078.84987 1696.72982,1077.8431 1695.49095,1077.8431 C1695.101,1077.8431 1694.73405,1077.94242 1694.41623,1078.11805 C1694.82395,1078.66901 1695.0665,1079.35065 1695.0665,1080.08978 C1695.0665,1080.82683 1694.82395,1081.50846 1694.41623,1082.06046 L1694.41623,1082.06046 Z M1695.49095,1083.40596 C1694.79677,1083.40596 1694.15277,1083.19269 1693.61855,1082.82783 C1693.08536,1083.19269 1692.44241,1083.40596 1691.74823,1083.40596 C1689.91764,1083.40596 1688.42995,1081.91828 1688.42995,1080.08978 C1688.42995,1078.25919 1689.91764,1076.77151 1691.74823,1076.77151 C1692.44241,1076.77151 1693.08536,1076.98478 1693.61855,1077.35069 C1694.15277,1076.98478 1694.79677,1076.77151 1695.49095,1076.77151 C1697.31945,1076.77151 1698.80923,1078.25919 1698.80923,1080.08978 C1698.80923,1081.91828 1697.31945,1083.40596 1695.49095,1083.40596 L1695.49095,1083.40596 Z M1680.62355,1072.07219 C1679.76836,1072.07219 1679.07209,1072.76846 1679.07209,1073.62365 L1679.07209,1083.3861 C1679.07209,1084.24128 1679.76836,1084.93755 1680.62355,1084.93755 L1698.37641,1084.93755 C1699.23159,1084.93755 1699.92786,1084.24128 1699.92786,1083.3861 L1699.92786,1073.62365 C1699.92786,1072.76846 1699.23159,1072.07219 1698.37641,1072.07219 L1680.62355,1072.07219 Z M1698.37641,1086.01019 L1680.62355,1086.01019 C1679.17664,1086.01019 1678.0005,1084.83301 1678.0005,1083.3861 L1678.0005,1073.62365 C1678.0005,1072.17674 1679.17664,1071.0006 1680.62355,1071.0006 L1698.37641,1071.0006 C1699.82332,1071.0006 1701.0005,1072.17674 1701.0005,1073.62365 L1701.0005,1083.3861 C1701.0005,1084.83301 1699.82332,1086.01019 1698.37641,1086.01019 L1698.37641,1086.01019 Z" id="credit-card-gray-23x15"></path>
        </g>
    </g>
</svg>