<?xml version="1.0" encoding="utf-8"?>
<!-- Generator: Adobe Illustrator 22.0.0, SVG Export Plug-In . SVG Version: 6.00 Build 0)  -->
<svg version="1.1" id="Layer_1" xmlns="http://www.w3.org/2000/svg" xmlns:xlink="http://www.w3.org/1999/xlink" x="0px" y="0px"
	 width="69px" height="69px" viewBox="0 0 69 69" style="enable-background:new 0 0 69 69;" xml:space="preserve">
<style type="text/css">
	.st0{fill:#FF5F00;}
</style>
<path class="st0" d="M35.1890678,63.0117264c-0.0107079,0.0282745-0.0120468,0.0569878-0.0040169,0.0861397
	c-1.3701057,0-2.7402115,0-4.1103191,0c0.0080357-0.0291519,0.0067005-0.0578651-0.0040073-0.0861397
	c0.1457691-0.1690292,0.3488274-0.1642151,0.5423317-0.165947c1.0111961-0.0090752,2.0224762-0.0090752,3.0336761,0
	C34.8402367,62.8475113,35.0432892,62.8427124,35.1890678,63.0117264z"/>
<path class="st0" d="M57.9635353,29.4810524c-0.6901093-0.1930008-1.2789536-0.372406-1.8759079-0.5187206
	c-0.3225784-0.0790615-0.221283-0.3304939-0.2291794-0.5073071c-0.0722923-1.6189308-0.3563805-3.1999512-0.7996025-4.7559395
	c-0.5195312-1.823904-1.2853737-3.5382938-2.2613182-5.162529c-3.292141-5.4790335-8.1136589-8.8541622-14.3607368-9.9805393
	c-7.1197262-1.2837195-13.3647652,0.7013922-18.6457691,5.6588717c-1.024641,0.9618702-1.941988,2.0261774-2.7073421,3.2049341
	c-2.2198534,3.4189034-3.5987597,7.1257553-3.7285242,11.238678c-0.0098906,0.3134842-0.1135721,0.4260025-0.3944216,0.476265
	c-0.2709932,0.0484982-0.537816,0.1259651-0.801898,0.205822c-0.2622976,0.0793171-0.5189009,0.1774654-0.7827101,0.2689896
	c-0.2696934-5.4765472,2.3537102-13.7909136,9.3061352-18.7550201c7.8915081-5.6346216,16.3647327-6.3609109,24.9313488-1.8222609
	C53.6787529,13.3052626,57.4623222,20.4337234,57.9635353,29.4810524z"/>
<path class="st0" d="M35.1890678,63.0117264c-1.3727798,0-2.7455635,0-4.1183434,0
	c-2.386507-0.2035599-4.0118332-2.0320702-3.9523983-4.471611c0.0066166-0.271534-0.1668339-0.2759781-0.3192425-0.3394547
	c-2.2913189-0.954319-4.3499947-2.269783-6.1687069-3.9605141c-1.7586136-1.6348534-3.1826553-3.5225525-4.2965736-5.6482391
	c-0.1060162-0.2023087-0.1482105-0.3202629,0.1104546-0.442215c0.5618782-0.2649117,0.9102364-0.7613716,1.2502213-1.3066177
	c1.3747311,2.9682121,3.3478661,5.3885345,5.9344368,7.3052368c1.1815109,0.8755188,2.4563141,1.5890388,3.8063164,2.1727066
	c0.2466373,0.1066322,0.3692837,0.0864601,0.5530224-0.1421928c1.0548382-1.3127022,2.4281406-1.8885078,4.1013565-1.5903168
	c1.6306267,0.2906036,2.6967392,1.2820244,3.2766418,2.8160629c0.0550575,0.1456566,0.0427704,0.3405838,0.2867889,0.3159409
	c0.0324669-0.0032806,0.0695114,0.0387573,0.104435,0.0598145c-0.3498306,0.241127-0.1247253,0.5979042-0.1822433,0.8978844
	c-0.0202904,0.1058159-0.115284,0.0956535-0.194313,0.0965729c-0.1793861,0.0020905-0.3599663-0.0123444-0.538002,0.0033112
	c-0.7077522,0.0622635-1.2366982,0.0769997-1.4699974-0.8913155c-0.258461-1.0727425-1.495636-1.5861092-2.5638142-1.3321533
	c-1.0097008,0.2400589-1.7839031,1.2615623-1.7188759,2.2679329c0.0767097,1.1871605,0.8910351,2.1463776,2.0328465,2.1938934
	c4.0924377,0.17033,8.1393242-0.0081825,11.9627304-1.7439995c4.7291527-2.1470261,8.28339-5.5109329,10.6056862-10.1604347
	c0.1709175-0.342205,0.3382263-0.5413475,0.7559013-0.4930954c0.2858391,0.03302,0.5840721-0.0275002,0.8753433-0.0592308
	c0.2729073-0.0297318,0.5439529-0.0765991,0.8235664-0.1170464C53.5771332,55.3244934,46.0313606,62.7241592,35.1890678,63.0117264z
	"/>
<path class="st0" d="M17.8236771,31.0410786c-0.1820374-0.6548862-0.5127869-1.1740265-1.0227242-1.5458355
	c-0.2600327-0.1895981-0.2135754-0.3319035-0.0834637-0.5563354c1.8530483-3.1963634,4.3525391-5.7556877,7.5474129-7.615572
	c3.0093098-1.7518578,6.2552185-2.7346268,9.7469769-2.7633762c8.0378952-0.0661793,14.1233978,3.4172401,18.3726768,10.1976871
	c0.1782303,0.2843971,0.2382736,0.4575424-0.1022301,0.6870937c-0.4993553,0.3366432-0.7742577,0.8672848-0.9732475,1.4310398
	c-3.6732712-6.560955-9.1513405-10.3446331-16.7573929-10.320013
	C26.9418106,20.5804024,21.4823437,24.3903255,17.8236771,31.0410786z"/>
<path class="st0" d="M62.0004272,37.5056763c-0.5324097-3.7781982-3.7330322-6.6625977-7.5490112-6.8016357
	c-0.9766235-0.0356445-1.3400879,0.3095093-1.3403931,1.2869263c-0.0015259,4.336853-0.0006714,8.6737061-0.0006714,13.0105591
	c0,1.5566406,0.2164917,1.760437,1.762085,1.6591187c3.067627-0.2011719,5.9957886-2.5855713,6.8275146-5.5311279
	c0.133606-0.4732666,0.1505737-0.9803467,0.3979492-1.4213257c0-0.1630859,0-0.3262329,0-0.4893188
	c-0.1546021-0.4240723-0.1690674-0.8481445,0-1.2722778c0-0.0652466,0-0.1304321,0-0.1956787
	C61.9681396,37.7081909,62.0127563,37.5933228,62.0004272,37.5056763z M59.7653809,40.5981445
	c-0.7236328,2.0731812-2.1556396,3.3447876-4.243103,3.9448242c-0.3933716,0.1130981-0.4284058-0.0154419-0.4263916-0.3491821
	c0.0111694-1.8428345,0.0053101-3.68573,0.0053101-5.5286255c0-1.8265991,0.0070801-3.6531982-0.0062866-5.4796753
	c-0.0025024-0.3409424,0.0430298-0.440979,0.425293-0.3499756C58.9234009,33.6454468,60.9177246,37.2965698,59.7653809,40.5981445z"
	/>
<path class="st0" d="M16.0836182,31.777832c-0.0005493-0.6856689-0.4219971-1.0914917-1.0987549-1.0883789
	c-3.5262451,0.0163574-6.6998291,2.4957886-7.5969238,5.9168701c-0.0998535,0.3808594-0.0628052,0.796936-0.2900391,1.1445923
	c0,0.3588257,0,0.7176514,0,1.0764771c0.1477661,0.1957397,0.1564941,0.3914795,0,0.5872192c0,0.0652466,0,0.1304932,0,0.1956787
	c0.2198486,0.31427,0.1943359,0.6973877,0.2836304,1.046875c0.8929443,3.4963989,3.8388062,5.9031372,7.4244385,6.0487671
	c0.8528442,0.0346069,1.2772217-0.3202515,1.277771-1.0961304C16.0870972,40.9991455,16.0870361,36.3884888,16.0836182,31.777832z
	 M14.0998535,44.2183228c0.0018921,0.3118896-0.0389404,0.434082-0.4014282,0.3482666
	c-2.652771-0.6282959-4.5682373-3.0759277-4.5917969-5.8965454c-0.022583-2.7108765,1.9161987-5.1782837,4.5471802-5.8287354
	c0.4029541-0.0996704,0.4514771,0.0056152,0.4481812,0.3706665c-0.0162964,1.8261108-0.0074463,3.6524048-0.0074463,5.4786987
	C14.0945435,40.5332031,14.0889893,42.3757935,14.0998535,44.2183228z"/>
</svg>
