<?xml version="1.0" encoding="utf-8"?>
<!-- Generator: Adobe Illustrator 22.0.0, SVG Export Plug-In . SVG Version: 6.00 Build 0)  -->
<svg version="1.1" id="Layer_1" xmlns="http://www.w3.org/2000/svg" xmlns:xlink="http://www.w3.org/1999/xlink" x="0px" y="0px"
	 width="69px" height="69px" viewBox="0 0 69 69" style="enable-background:new 0 0 69 69;" xml:space="preserve">
<style type="text/css">
	.st0{fill:#FF5F00;}
</style>
<g>
	<path class="st0" d="M62.7212257,36.5862541c0.0241699-0.0107307,0.0474815-0.0091019,0.0699196,0.0048904
		c0,3.2218781,0,6.4437561,0,9.6656303l-0.0357475,0.0074234L62.719017,46.2612
		c-0.1724777-0.1517525-0.1500816-0.3604774-0.1504059-0.5554047c-0.0047874-2.8551445-0.0048752-5.7103004,0.0000839-8.5654449
		C62.5690346,36.9456215,62.5461464,36.7364922,62.7212257,36.5862541z"/>
	<path class="st0" d="M30.8860149,6.995501c0.3706589,0,0.7413158,0,1.1119747,0
		c0.0265198,0.0528679,0.0155716,0.0962749-0.0327091,0.1304951c-0.3487625,0.1172061-0.6977062,0.1174207-1.0468254,0.0006266
		C30.870245,7.0922585,30.8594856,7.0484591,30.8860149,6.995501z"/>
	<path class="st0" d="M32.0029869,7.0700598c-0.0058537-0.0245719-0.0075188-0.0494246-0.0049973-0.0745587
		c0.199585,0,0.3991699,0,0.5987549,0c0.00037,0.0241151,0.0018463,0.048162,0.0044212,0.0721416
		C32.4024658,7.2402649,32.203064,7.2390246,32.0029869,7.0700598z"/>
	<path class="st0" d="M30.8860149,6.995501c0.0025253,0.0251327,0.000864,0.0499849-0.0049896,0.0745568
		c-0.2000732,0.1689625-0.3994713,0.1702089-0.5981655-0.002419c0.0025635-0.0239787,0.0040302-0.0480247,0.0043983-0.0721378
		C30.486845,6.995501,30.6864281,6.995501,30.8860149,6.995501z"/>
	<path class="st0" d="M38.7590866,62.9489479c-0.0041161,0.0241814-0.005352,0.0485115-0.0037117,0.0729904
		c-0.199585,0-0.3991699,0-0.5987549,0c0.005249-0.0251656,0.0041428-0.0500412-0.0033188-0.0746422
		C38.3556938,62.7769241,38.5576286,62.776062,38.7590866,62.9489479z"/>
	<path class="st0" d="M56.3759041,63.0219383c0.0025902-0.0247002,0.0012932-0.0491943-0.0038795-0.0734863
		c0.1751289-0.1563263,0.3491058-0.1590195,0.521843,0.0039024c0.0014648,0.023407-0.0001183,0.0465965-0.0047455,0.0695839
		C56.7180519,63.0219383,56.546978,63.0219383,56.3759041,63.0219383z"/>
	<path class="st0" d="M62.7212257,36.5862541c-0.0052032,2.5574074-0.0115814,5.1148071-0.0148087,7.6722145
		c-0.0008392,0.667572,0.0081329,1.3351555,0.0125999,2.0027313c-0.1369476,2.4224281-2.2690125,3.8419037-4.0868301,3.8228073
		c-5.4006386-0.0567284-10.8022499-0.0199203-16.2034836-0.0206718c-1.0711365-0.000145-2.2347679-0.7326012-2.6079025-1.6681328
		c0.1657524,0,0.3157082,0,0.4656639,0c6.0140381,0,12.0280724,0.0001373,18.0421104-0.0000839
		c1.7209053-0.0000648,2.6662598-0.9466972,2.6662979-2.6686745c0.0000534-2.8645058,0.0000267-5.7290115,0.0000114-8.5935173
		c-0.0000114-1.7612724-0.9257469-2.6940994-2.6753769-2.694149c-8.3369942-0.0002213-16.673996-0.002285-25.0109749,0.0076828
		c-0.3435631,0.0004082-0.5402679-0.0833778-0.6743507-0.4136391c-0.1757698-0.4329185-0.4105148-0.8418884-0.6185112-1.2584038
		c0.0899467-0.1303749,0.2148399-0.0728493,0.3177261-0.0728836c8.7075272-0.003067,17.4150543-0.0063515,26.1225777-0.0005226
		C60.8372993,32.7026024,62.5342445,34.2621651,62.7212257,36.5862541z"/>
	<path class="st0" d="M59.2772217,52.3070679c0.0462036-0.401123-0.1051636-0.4860229-0.4891968-0.4851074
		c-5.3314819,0.0129395-10.6629639-0.000061-15.9943848,0.0167236c-0.9893188,0.0031128-1.8834839-0.1633911-2.7157593-0.751709
		c-0.7733154-0.5466309-1.4246216-1.1615601-1.8443604-2.0213623c-1.2838135-2.6294556-2.6276855-5.2289429-3.8986816-7.8652344
		c-1.2467041-2.5858765-2.569397-5.1350708-3.8389282-7.710083c-0.4054565-0.8223877-1.0066528-1.4877319-1.6862793-2.0529785
		c-1.1360474-0.9448853-2.4746094-1.4273071-3.9744873-1.4205933c-1.9814453,0.0088501-3.9629517,0.0021973-5.944458,0.0021973
		c-0.8331299,0-0.8297729,0.0001221-0.7922974-0.8136597c0.1349487-2.927063,0.624939-5.7921143,1.4840698-8.5944214
		c0.0685425-0.2235107,0.1288452-0.3547363,0.4173584-0.3517456c1.7247314,0.0178223,3.449707,0.0145874,5.1744995,0.0029297
		c0.2693481-0.0018311,0.3272705,0.0549927,0.2927246,0.3318481c-0.3082275,2.4732056-0.4732666,4.9578247-0.564209,7.447998
		c-0.0078735,0.2144775,0.0230103,0.2979126,0.2654419,0.3042603c0.3676758,0.0096436,0.7384033,0.0548706,1.098938,0.1286011
		c0.2566528,0.0524902,0.3544922,0.0539551,0.3659058-0.2662964c0.0897827-2.5183105,0.2666626-5.0306396,0.5682983-7.5337524
		c0.0343018-0.284729,0.0862427-0.4174194,0.421875-0.4153442c2.5515747,0.015686,5.1033325,0.0132446,7.6549683,0.0018921
		c0.2739868-0.0012207,0.3662109,0.0792236,0.3971558,0.3468018c0.3660889,3.1706543,0.6019287,6.348938,0.5999756,9.5425415
		c-0.0004883,0.7810669,0.0025024,0.7810669,0.788208,0.7810669c0.9362793,0,0.9354858,0,0.9364014-0.9316406
		c0.0028687-3.1507568-0.210022-6.2885742-0.5852661-9.4153442c-0.0354004-0.2953491,0.0549316-0.322876,0.3043823-0.3215332
		c1.7105713,0.0091553,3.4213257,0.0126343,5.1317749-0.0028076c0.2875366-0.0026245,0.3773193,0.1061401,0.454834,0.3590698
		c0.8969116,2.9271851,1.3961182,5.9194946,1.5189819,8.9776001c0.0175171,0.4356689-0.1920166,1.0444336,0.1043091,1.2612305
		c0.2998657,0.2194214,0.8737183,0.0644531,1.3275757,0.0733643c0.0285034,0.0005493,0.057251-0.0024414,0.0854492,0.0004272
		c0.18573,0.0188599,0.2344971-0.0535889,0.2324219-0.2462769c-0.0234375-2.1824951-0.2075806-4.3480835-0.6221313-6.4934082
		c-0.2531738-1.3098755-0.5592651-2.6063843-0.9483032-3.9241333c1.8514404,0,3.6714478,0.0026855,5.4914551-0.0039673
		c0.1895752-0.0007324,0.2383423,0.121521,0.3023682,0.2458496c0.2592773,0.50354,0.4914551,1.0184937,0.717041,1.5389404
		c1.0628052,2.4524536,1.6764526,5.0057373,1.8313599,7.6741943c0.0227661,0.392395-0.1571045,0.9452515,0.1035156,1.1360474
		c0.2720947,0.1992188,0.7919922,0.0424805,1.2003174,0.0785522c0.3414307,0.0301514,0.4556274-0.0541992,0.4524536-0.4280396
		c-0.0264282-3.1445312-0.7149658-6.1522217-1.9153442-9.038269c-1.6564331-3.9823608-4.3260498-7.2116089-7.7304688-9.7998657
		c-3.7816772-2.8751831-8.1123657-4.3477783-12.8555298-4.6040039c-0.1994019,0.0007935-0.3988037,0.0016479-0.5982056,0.0024414
		c-0.3739624,0-0.7479858,0-1.1219482,0c-0.1994019-0.0007935-0.3988037-0.0016479-0.5981445-0.0024414
		c-9.8884277,0.4293213-18.4059448,7.1207275-21.1442261,16.0541992
		C5.5304565,34.8935547,9.1202393,44.3789062,19.2106934,51.3432617c2.9810791,2.0574951,6.4452515,3.0162964,10.055542,3.3521118
		c2.9297485,0.272522,5.810791,0.0003052,8.7036133-0.8297119c-0.7930908-0.5671387-1.4573975-1.166687-2.0072021-1.8823853
		c-0.1211548-0.1577148-0.2121582-0.1138306-0.3530273-0.0425415c-0.3466187,0.175354-0.6794434,0.3895874-1.1183472,0.4852295
		c0.2713623-0.4954834,0.5040283-0.9485474,0.661499-1.434082c0.0366821-0.1131592,0.1292725-0.2097168,0.0515747-0.3592529
		c-0.3427734-0.6598511-0.670105-1.3276978-1.0342407-2.0549927c-0.0895386,0.2672729-0.1452637,0.4578857-0.2166748,0.6425171
		c-0.43396,1.1223145-0.7826538,2.2874756-1.5621338,3.2416992c-0.6422729,0.7862549-1.2407837,0.776123-1.9000244,0.0062256
		c-0.4899292-0.5722046-0.7674561-1.2554321-1.053894-1.9331055c-0.9246826-2.1876221-1.4194336-4.4924927-1.8536987-6.8151245
		c-0.0653076-0.3493042,0.0261841-0.3978271,0.34375-0.3924561c1.0831299,0.0184326,2.1668701-0.0043335,3.25,0.0137939
		c0.3414917,0.0056763,0.3526611-0.0922241,0.2096558-0.3522949c-0.1984253-0.3606567-0.3921509-0.7258911-0.5551758-1.1032715
		c-0.1013794-0.2348022-0.2424927-0.3002319-0.4874878-0.2965088c-0.9121704,0.0136719-1.8247681-0.0026855-2.7368774,0.0108643
		c-0.2426758,0.0036011-0.3515625-0.0497437-0.3829956-0.3131104c-0.2498779-2.0928345-0.4447632-4.1900635-0.5267944-6.2963257
		c-0.0358887-0.9229736-0.0805664-1.006958-0.9745483-1.322998c-0.133606-0.0472412-0.2728271-0.0789795-0.4099731-0.1157227
		c-0.2860107-0.0765381-0.4260254-0.0466309-0.4104004,0.329834c0.1016846,2.4473267,0.2490845,4.890564,0.5710449,7.3197632
		c0.0447998,0.3377075-0.0412598,0.4035034-0.3639526,0.4004517c-1.6677246-0.0158081-3.3358154-0.0181885-5.003418,0.0020752
		c-0.3221436,0.0039673-0.4211426-0.1157837-0.510498-0.3956909c-0.9327393-2.9212036-1.3809204-5.9223633-1.5324097-8.9768066
		c-0.0168457-0.3393555,0.1015625-0.3956299,0.407959-0.3937378c2.0811768,0.0127563,4.1625977-0.0050659,6.2437134,0.0100098
		c1.9893799,0.0144043,3.4639282,0.916748,4.3586426,2.6902466c1.2148438,2.40802,2.3848267,4.8386841,3.5844727,7.2544556
		c1.3396606,2.6977539,2.6964722,5.3870239,4.032959,8.0863647c0.2855225,0.5766602,0.6182251,1.1339111,1.0457153,1.5927734
		c1.1668701,1.2525024,2.6193237,2.0681763,4.3479614,2.0820923c5.6162109,0.0452271,11.2330322,0.015564,16.8496094,0.0215454
		c0.2506714,0.0003052,0.3635254-0.0509644,0.3411865-0.3285522C59.2507935,52.9349976,59.2415771,52.6165771,59.2772217,52.3070679
		z M49.5698853,18.4564209c-0.0616455,0.1335449-0.1601562,0.0838623-0.2339478,0.0839844
		c-1.5380249,0.0033569-3.0760498-0.0036621-4.6139526,0.008728c-0.251709,0.0020752-0.3713989-0.0708618-0.46521-0.309021
		c-0.8644409-2.1942139-2.0231323-4.21698-3.475769-6.0813599c-0.5516357-0.7080078-1.1537476-1.3527832-1.7699585-1.9983521
		C43.3444214,11.895874,46.8969116,14.619812,49.5698853,18.4564209z M42.4993286,18.5428467
		c-1.7263794,0-3.4464722-0.0053711-5.1664429,0.0057373c-0.2626953,0.001709-0.2108765-0.1755371-0.2333984-0.3082275
		c-0.3139648-1.8501587-0.6936646-3.6843872-1.2469482-5.480896c-0.3427734-1.1131592-0.7261353-2.2073975-1.3183594-3.2702637
		C36.847229,9.6697998,41.5903931,15.0881348,42.4993286,18.5428467z M30.5910645,9.2546997
		c0.5753784-0.635437,1.1247559-0.6353149,1.699585,0.0031128c0.6691284,0.743042,1.0735474,1.6409302,1.4011841,2.565918
		c0.7271729,2.0534058,1.2306519,4.1663208,1.6124268,6.3104858c0.0627441,0.352417-0.0171509,0.4221802-0.3579712,0.4164429
		c-1.1821899-0.0199585-2.3649902-0.0077515-3.5475464-0.0077515c-1.1826172,0-2.3651733-0.0037231-3.5477295,0.003479
		c-0.213562,0.0012817-0.3451538-0.0029297-0.2926025-0.2869873c0.4682007-2.5319214,1.0164185-5.0414429,2.0456543-7.4177246
		C29.8535156,10.265564,30.1671753,9.7229004,30.5910645,9.2546997z M27.7960815,9.6245117
		c0.2550659-0.1257935,0.2570801-0.1217041,0.5170898-0.1217651c-1.3538208,2.7277832-2.0038452,5.6582642-2.4938354,8.6328735
		c-0.053833,0.3267212-0.1600952,0.4223633-0.5009766,0.4176025c-1.6369019-0.0228882-3.274353-0.0103149-4.9609375-0.0103149
		c0.2653809-0.7566528,0.6167603-1.4436035,0.9787598-2.1226807c0.8331299-1.5628662,1.8651123-2.9772339,3.0690918-4.284729
		C25.3845215,11.0718994,26.5143433,10.2564697,27.7960815,9.6245117z M11.2559204,22.3324585
		c0.2565918-0.6143799,0.5029907-1.2319336,0.8247681-1.8164062c0.0773315-0.1405029,0.1401978-0.2540894,0.3425293-0.2531128
		c1.8075562,0.008728,3.6151733,0.0050659,5.4573364,0.0050659c-0.3571777,1.1974487-0.6393433,2.381958-0.8799438,3.5767822
		c-0.3800659,1.8875122-0.607666,3.7926025-0.6479492,5.7171021c-0.0075073,0.3598022-0.0904541,0.4724731-0.4750366,0.4678955
		c-1.9801025-0.0235596-3.9606934-0.0174561-5.94104-0.0039673c-0.2993164,0.0020752-0.3825073-0.0679321-0.364624-0.3753662
		C9.7195435,27.114624,10.2769165,24.6766968,11.2559204,22.3324585z M12.1537476,41.4018555
		c-1.0870972-2.0808105-1.8701782-4.2634888-2.2735596-6.5786743c-0.1539917-0.8837891-0.2584839-1.7733154-0.3079834-2.6699219
		c-0.0132446-0.2394409,0.052063-0.3173218,0.2998657-0.314209c1.0257568,0.0129395,2.0518188,0.0054321,3.0777588,0.0054321
		c0.9974976-0.000061,1.9951172,0.0100708,2.9922485-0.0065308c0.2826538-0.0046997,0.4000854,0.0579834,0.4074707,0.3640747
		c0.074707,3.0752563,0.5646362,6.085144,1.4675293,9.0258179c0.0843506,0.2748413,0.0714722,0.3756104-0.256897,0.3729858
		c-1.6812744-0.0137329-3.362793-0.0060425-5.0441895-0.006958C12.3640747,41.593811,12.2549438,41.59552,12.1537476,41.4018555z
		 M20.4086304,43.3345337c1.6925049,0,3.3867798,0.0109863,5.0806885-0.0088501
		c0.3604126-0.0042114,0.3001099,0.2485962,0.3278809,0.4211426c0.2058105,1.2774048,0.4644165,2.5429688,0.7844238,3.7966919
		c0.4255981,1.6675415,0.9807739,3.2873535,1.774353,4.887207c-0.7389526-0.2277222-1.394165-0.5619507-1.9556274-1.0115356
		c-0.581543-0.4656372-1.1743164-0.9235229-1.7147827-1.4450684c-1.9269409-1.8596802-3.267334-4.0996094-4.3067627-6.5404053
		C20.3895264,43.4119873,20.4034424,43.3803101,20.4086304,43.3345337z M18.1612549,43.3267822
		c0.2752075-0.0029297,0.3919067,0.0899658,0.4906616,0.3345337c1.123291,2.7806396,2.6256714,5.3204956,4.7780762,7.440918
		c0.1240845,0.1222534,0.196106,0.2683105,0.3085938,0.5014038c-4.2907104-1.7878418-7.8007202-4.4057617-10.3868408-8.1953735
		c0.0842896-0.1221313,0.1931152-0.0707397,0.2813721-0.0709839C15.1425171,43.3334351,16.6519775,43.3429565,18.1612549,43.3267822
		z M18.0618896,18.5526123c-1.4376221-0.0228882-2.8757935-0.0097046-4.3137817-0.0097046c-0.1369019,0-0.2738037,0-0.4312744,0
		c1.8656616-3.1397705,6.501709-7.0167847,10.6156006-8.3922729c-0.3383789,0.3330688-0.6165161,0.5785522-0.8621826,0.8531494
		c-1.8916626,2.1142578-3.3551025,4.496582-4.4012451,7.1312256C18.5435791,18.4508057,18.4052124,18.5580444,18.0618896,18.5526123
		z"/>
	<path class="st0" d="M38.5401001,55.9364624c-1.8512573-0.0336304-3.4267578,1.3843384-3.5281372,3.2332764
		c-0.1028442,1.8756104,1.0896606,3.5551758,3.1413574,3.7775879c0.2019043,0.0004883,0.4038696,0.0010376,0.6057739,0.0016479
		c1.456604-0.1826172,2.4494629-0.9452515,2.9631348-2.3337402C42.5446777,58.3920288,40.9089355,55.9795532,38.5401001,55.9364624z
		 M38.4688721,61.2255859c-0.8504639,0.0038452-1.7583618-0.9436646-1.7479248-1.8242798
		c0.0111694-0.9447632,0.8172607-1.7333374,1.7630615-1.7246704c0.9353027,0.008606,1.7093506,0.7843018,1.7146606,1.7183228
		C40.2038574,60.3012085,39.3340454,61.2216797,38.4688721,61.2255859z"/>
	<path class="st0" d="M56.7460938,55.9364624c-1.8430786-0.036499-3.4180908,1.3768311-3.536377,3.1760864
		c-0.1290283,1.9639282,1.1541748,3.6460571,3.1623535,3.8358765c0.1739502,0.0013428,0.3478394,0.0026245,0.5217896,0.0039062
		c1.4950562-0.1679688,2.5115356-0.9314575,3.0282593-2.3674316C60.7176514,58.3743286,59.0934448,55.9829102,56.7460938,55.9364624
		z M57.079834,61.0703125c-0.0879517,0.0593872-0.2004395,0.0712891-0.2806396,0.1455688
		c-0.8807983,0.0080566-1.7839966-0.7694092-1.871582-1.6210938c-0.0841675-0.8188477,0.4820557-1.6576538,1.2943726-1.8670044
		c0.8612671-0.2219238,1.7346191,0.2398071,2.0569458,1.0875244C58.6413574,59.7686768,58.1081543,60.7714233,57.079834,61.0703125z
		"/>
	<path class="st0" d="M56.7991562,61.2158661c0.0376816-0.15625,0.1413651-0.1852264,0.2806549-0.1455421
		C57.0627747,61.2663918,56.925148,61.2299042,56.7991562,61.2158661z"/>
</g>
</svg>
