<?xml version="1.0" encoding="UTF-8"?>
<svg width="12px" height="12px" viewBox="0 0 12 12" version="1.1" xmlns="http://www.w3.org/2000/svg" xmlns:xlink="http://www.w3.org/1999/xlink">
    <!-- Generator: Sketch 55.2 (78181) - https://sketchapp.com -->
    <title>globe</title>
    <desc>Created with Sketch.</desc>
    <g id="Page-1" stroke="none" stroke-width="1" fill="none" fill-rule="evenodd">
        <g id="Artboard" transform="translate(-479.000000, -268.000000)" fill="#96918B" fill-rule="nonzero">
            <g id="globe" transform="translate(479.000000, 268.000000)">
                <g id="Green">
                    <path d="M6,12 C2.69142857,12 0,9.30857143 0,6 C0,2.69142857 2.69142857,0 6,0 C9.30857143,0 12,2.69142857 12,6 C12,9.30857143 9.30857143,12 6,12 Z M6,0.571428571 C3.00685714,0.571428571 0.571428571,3.00685714 0.571428571,6 C0.571428571,8.99314286 3.00685714,11.4285714 6,11.4285714 C8.99314286,11.4285714 11.4285714,8.99314286 11.4285714,6 C11.4285714,3.00685714 8.99314286,0.571428571 6,0.571428571 Z" id="Shape"></path>
                    <path d="M6,11.9994286 C4.416,11.9994286 3.17485714,9.364 3.17485714,5.99942857 C3.17485714,2.63485714 4.416,0 6,0 C7.584,0 8.82514286,2.63485714 8.82514286,5.99942857 C8.82514286,9.364 7.584,11.9994286 6,11.9994286 Z M6,0.571428571 C4.91142857,0.571428571 3.74628571,2.75257143 3.74628571,5.99942857 C3.74628571,9.24685714 4.912,11.428 6,11.428 C7.088,11.428 8.25371429,9.24685714 8.25371429,5.99942857 C8.25371429,2.75257143 7.08857143,0.571428571 6,0.571428571 Z" id="Shape"></path>
                    <rect id="Rectangle" x="0.952571429" y="2.85714286" width="10.0948571" height="1"></rect>
                    <rect id="Rectangle" x="0.952571429" y="8.57142857" width="10.0948571" height="1"></rect>
                </g>
            </g>
        </g>
    </g>
</svg>