<?xml version="1.0" encoding="UTF-8"?>
<svg width="40px" height="40px" viewBox="0 0 40 40" version="1.1" xmlns="http://www.w3.org/2000/svg" xmlns:xlink="http://www.w3.org/1999/xlink">
    <!-- Generator: Sketch 46.2 (44496) - http://www.bohemiancoding.com/sketch -->
    <title>icon</title>
    <desc>Created with Sketch.</desc>
    <defs></defs>
    <g id="Symbols" stroke="none" stroke-width="1" fill="none" fill-rule="evenodd">
        <g id="navigation/social-channels/black/lg" transform="translate(-144.000000, -26.000000)">
            <g id="icons" transform="translate(0.000000, 26.000000)">
                <g id="icon/social/x-large/black/youtube/rest" transform="translate(144.000000, 0.000000)">
                    <path d="M20,1 C9.50645142,1 1,9.50645142 1,20 C1,30.4935486 9.50645142,39 20,39 C30.4935486,39 39,30.4935486 39,20 C39,9.50645142 30.4935486,1 20,1 Z" id="circle" stroke="#141413" stroke-width="2"></path>
                    <path d="M22.8842484,20.2305825 L18.8429863,22.1167559 C18.4897054,22.2809675 18.1996987,22.0971711 18.1996987,21.706227 L18.1996987,18.15308 C18.1996987,17.7636425 18.4897054,17.5790927 18.8429863,17.7433043 L22.8842484,19.6294777 C23.2382826,19.7951958 23.2382826,20.0648644 22.8842484,20.2305825 M20,13 C11.1544191,13 11,13.7864078 11,19.9300301 C11,26.0736525 11.1544191,26.8600603 20,26.8600603 C28.8448276,26.8600603 29,26.0736525 29,19.9300301 C29,13.7864078 28.8448276,13 20,13" id="icon" fill="#141413" fill-rule="evenodd"></path>
                </g>
            </g>
        </g>
    </g>
</svg>