<?xml version="1.0" encoding="UTF-8"?>
<svg width="40px" height="40px" viewBox="0 0 40 40" version="1.1" xmlns="http://www.w3.org/2000/svg" xmlns:xlink="http://www.w3.org/1999/xlink">
    <!-- Generator: Sketch 46.2 (44496) - http://www.bohemiancoding.com/sketch -->
    <title>icon-facebook</title>
    <desc>Created with Sketch.</desc>
    <defs></defs>
    <g id="Page-1" stroke="none" stroke-width="1" fill="none" fill-rule="evenodd">
        <g id="icon-facebook" transform="translate(1.000000, 1.000000)">
            <path d="M19,0 C8.50645142,0 0,8.50645142 0,19 C0,29.4935486 8.50645142,38 19,38 C29.4935486,38 38,29.4935486 38,19 C38,8.50645142 29.4935486,0 19,0 Z" id="circle" stroke="#FFFFFF" stroke-width="2"></path>
            <path d="M20.427555,14.1658994 C20.427555,13.574119 20.8033816,13.128819 21.1423788,13.128819 L23.9974889,13.128819 L23.9974889,10 L21.1423788,10 C18.7794425,10 17.0576714,12.0164058 17.0576714,14.4982004 L17.0576714,16.2275048 L14,16.2275048 L14,19.168829 L17.0576714,19.168829 L17.0576714,27.9961497 L20.427555,27.9961497 L20.427555,19.168829 L23.4592785,19.168829 L24,16.2275048 L20.427555,16.2275048 L20.427555,14.1658994 Z" id="icon" fill="#FFFFFF"></path>
        </g>
    </g>
</svg>