<?xml version="1.0" encoding="UTF-8"?>
<svg width="40px" height="40px" viewBox="0 0 40 40" version="1.1" xmlns="http://www.w3.org/2000/svg" xmlns:xlink="http://www.w3.org/1999/xlink">
    <!-- Generator: Sketch 46.2 (44496) - http://www.bohemiancoding.com/sketch -->
    <title>icon</title>
    <desc>Created with Sketch.</desc>
    <defs></defs>
    <g id="-" stroke="none" stroke-width="1" fill="none" fill-rule="evenodd">
        <g id="menu/social/black/selector" transform="translate(-16.000000, -113.000000)">
            <g id="menu">
                <g id="service-1" transform="translate(0.000000, 89.000000)">
                    <g id="item" transform="translate(16.000000, 24.000000)">
                        <g id="icon/social/x-large/black/facebook/rest">
                            <path d="M20,1 C9.50645142,1 1,9.50645142 1,20 C1,30.4935486 9.50645142,39 20,39 C30.4935486,39 39,30.4935486 39,20 C39,9.50645142 30.4935486,1 20,1 Z" id="circle" stroke="#141413" stroke-width="2"></path>
                            <path d="M21.427555,15.1658994 C21.427555,14.574119 21.8033816,14.128819 22.1423788,14.128819 L24.9974889,14.128819 L24.9974889,11 L22.1423788,11 C19.7794425,11 18.0576714,13.0164058 18.0576714,15.4982004 L18.0576714,17.2275048 L15,17.2275048 L15,20.168829 L18.0576714,20.168829 L18.0576714,28.9961497 L21.427555,28.9961497 L21.427555,20.168829 L24.4592785,20.168829 L25,17.2275048 L21.427555,17.2275048 L21.427555,15.1658994 Z" id="icon" fill="#141413" fill-rule="evenodd"></path>
                        </g>
                    </g>
                </g>
            </g>
        </g>
    </g>
</svg>