<?xml version="1.0" encoding="UTF-8"?>
<svg width="40px" height="40px" viewBox="0 0 40 40" version="1.1" xmlns="http://www.w3.org/2000/svg" xmlns:xlink="http://www.w3.org/1999/xlink">
    <!-- Generator: Sketch 46.2 (44496) - http://www.bohemiancoding.com/sketch -->
    <title>icon</title>
    <desc>Created with Sketch.</desc>
    <defs></defs>
    <g id="-" stroke="none" stroke-width="1" fill="none" fill-rule="evenodd">
        <g id="menu/social/black/selector" transform="translate(-16.000000, -202.000000)">
            <g id="menu">
                <g id="service-2" transform="translate(0.000000, 178.000000)">
                    <g id="item" transform="translate(16.000000, 24.000000)">
                        <g id="icon/social/x-large/black/twitter/rest">
                            <path d="M20,1 C9.50645142,1 1,9.50645142 1,20 C1,30.4935486 9.50645142,39 20,39 C30.4935486,39 39,30.4935486 39,20 C39,9.50645142 30.4935486,1 20,1 Z" id="circle" stroke="#141413" stroke-width="2"></path>
                            <path d="M27.1566173,16.484777 C27.1642821,16.6366399 27.167348,16.7899701 27.167348,16.941833 C27.167348,21.6143688 23.4529893,27 16.6612161,27 C14.574093,27 12.6341339,26.4145575 11,25.4109417 C11.2889627,25.4439554 11.5825243,25.460829 11.8799182,25.460829 C13.611395,25.460829 15.2033725,24.8951947 16.4665304,23.948069 C14.850792,23.9194571 13.4864589,22.8989677 13.0166071,21.4940523 C13.241952,21.5344023 13.4734287,21.5556778 13.7110373,21.5556778 C14.0490547,21.5556778 14.3755749,21.5138605 14.684466,21.4331604 C12.9951456,21.1074255 11.72279,19.6797673 11.72279,17.9659907 L11.72279,17.9219724 C12.2202351,18.1868155 12.7904957,18.3460148 13.3952478,18.3650893 C12.4041901,17.7297595 11.7519162,16.6498454 11.7519162,15.4217366 C11.7519162,14.7746686 11.9335718,14.1672169 12.2524272,13.6448672 C14.073582,15.7841534 16.7961165,17.1905361 19.8643332,17.3387308 C19.8022483,17.0790232 19.7700562,16.810512 19.7700562,16.5324634 C19.7700562,14.5809883 21.4218191,13 23.4614205,13 C24.5237609,13 25.4841594,13.4277105 26.1578947,14.1151286 C26.9979561,13.9559294 27.7881962,13.6617408 28.5025549,13.2575067 C28.2266224,14.082115 27.6410322,14.7746686 26.8791518,15.21265 C27.6264691,15.1260808 28.3362289,14.9382697 29,14.6558193 C28.5048544,15.3659802 27.8786408,15.987371 27.1566173,16.484777" id="icon" fill="#141413" fill-rule="evenodd"></path>
                        </g>
                    </g>
                </g>
            </g>
        </g>
    </g>
</svg>