<?xml version="1.0" encoding="UTF-8"?>
<svg width="40px" height="40px" viewBox="0 0 40 40" version="1.1" xmlns="http://www.w3.org/2000/svg" xmlns:xlink="http://www.w3.org/1999/xlink">
    <!-- Generator: Sketch 46.2 (44496) - http://www.bohemiancoding.com/sketch -->
    <title>icon</title>
    <desc>Created with Sketch.</desc>
    <defs></defs>
    <g id="-" stroke="none" stroke-width="1" fill="none" fill-rule="evenodd">
        <g id="menu/social/black/selector" transform="translate(-16.000000, -291.000000)">
            <g id="menu">
                <g id="service-3" transform="translate(0.000000, 267.000000)">
                    <g id="item" transform="translate(16.000000, 24.000000)">
                        <g id="icon/social/x-large/black/linkedin/rest">
                            <path d="M20,1 C9.50645142,1 1,9.50645142 1,20 C1,30.4935486 9.50645142,39 20,39 C30.4935486,39 39,30.4935486 39,20 C39,9.50645142 30.4935486,1 20,1 Z" id="circle" stroke="#141413" stroke-width="2"></path>
                            <path d="M23.5777778,16.0444444 C21.9444444,16.0444444 21.0111111,16.9777778 20.6222222,17.6 L20.5444444,17.6 L20.3888889,16.2777778 L17.5888889,16.2777778 C17.5888889,17.1333333 17.6666667,18.1444444 17.6666667,19.3111111 L17.6666667,26 L20.7777778,26 L20.7777778,20.4777778 C20.7777778,20.1666667 20.7777778,19.9333333 20.8555556,19.7 C21.0888889,19.1555556 21.4777778,18.4555556 22.3333333,18.4555556 C23.4222222,18.4555556 23.8888889,19.3888889 23.8888889,20.6333333 L23.8888889,26 L27,26 L27,20.2444444 C27,17.3666667 25.5222222,16.0444444 23.5777778,16.0444444 L23.5777778,16.0444444 Z M13,26 L16.1111111,26 L16.1111111,15.8888889 L13,15.8888889 L13,26 Z M16.1111111,13.5555556 C16.1111111,14.4111111 15.5666667,15.1111111 14.5555556,15.1111111 C13.6222222,15.1111111 13,14.4111111 13,13.6333333 C13,12.7777778 13.6222222,12 14.5555556,12 C15.4888889,12 16.1111111,12.7 16.1111111,13.5555556 L16.1111111,13.5555556 Z" id="icon" fill="#141413" fill-rule="evenodd"></path>
                        </g>
                    </g>
                </g>
            </g>
        </g>
    </g>
</svg>