<?xml version="1.0" encoding="UTF-8"?>
<svg width="15px" height="22px" viewBox="0 0 15 22" version="1.1" xmlns="http://www.w3.org/2000/svg" xmlns:xlink="http://www.w3.org/1999/xlink">
    <!-- Generator: Sketch 55.2 (78181) - https://sketchapp.com -->
    <title>location-black</title>
    <desc>Created with Sketch.</desc>
    <g id="Page-1" stroke="none" stroke-width="1" fill="none" fill-rule="evenodd">
        <g id="Artboard" transform="translate(-1651.000000, -1029.000000)" fill="#141413" fill-rule="nonzero">
            <path d="M1658.08194,1032.81679 C1656.45511,1032.81679 1655.13092,1034.09629 1655.13092,1035.66821 C1655.13092,1037.24141 1656.45511,1038.52091 1658.08194,1038.52091 C1659.70877,1038.52091 1661.03296,1037.24141 1661.03296,1035.66821 C1661.03296,1034.09629 1659.70877,1032.81679 1658.08194,1032.81679 L1658.08194,1032.81679 Z M1658.08194,1039.75571 C1655.75024,1039.75571 1653.85397,1037.92202 1653.85397,1035.66821 C1653.85397,1033.41568 1655.75024,1031.58326 1658.08194,1031.58326 C1660.41364,1031.58326 1662.30991,1033.41568 1662.30991,1035.66821 C1662.30991,1037.92202 1660.41364,1039.75571 1658.08194,1039.75571 L1658.08194,1039.75571 Z M1658.08194,1030.23481 C1654.88064,1030.23481 1652.27695,1032.75167 1652.27695,1035.84698 C1652.27695,1038.28212 1656.06564,1045.02695 1658.08194,1048.34445 C1660.09824,1045.02695 1663.88821,1038.28212 1663.88821,1035.84698 C1663.88821,1032.75167 1661.28324,1030.23481 1658.08194,1030.23481 L1658.08194,1030.23481 Z M1658.08194,1050.74 L1657.53668,1049.8704 C1657.2698,1049.44518 1651,1039.4186 1651,1035.84698 C1651,1032.07233 1654.17704,1029 1658.08194,1029 C1661.98812,1029 1665.16644,1032.07233 1665.16644,1035.84698 C1665.16644,1039.4186 1658.89536,1049.44518 1658.6272,1049.8704 L1658.08194,1050.74 Z" id="location-black"></path>
        </g>
    </g>
</svg>