<?xml version="1.0" encoding="UTF-8"?>
<svg width="15px" height="22px" viewBox="0 0 15 22" version="1.1" xmlns="http://www.w3.org/2000/svg" xmlns:xlink="http://www.w3.org/1999/xlink">
    <!-- Generator: Sketch 55.2 (78181) - https://sketchapp.com -->
    <title>location-white</title>
    <desc>Created with Sketch.</desc>
    <g id="Page-1" stroke="none" stroke-width="1" fill="none" fill-rule="evenodd">
        <g id="Artboard" transform="translate(-1651.000000, -990.000000)" fill="#FFFFFF" fill-rule="nonzero">
            <path d="M1658.08194,993.816791 C1656.45511,993.816791 1655.13092,995.09629 1655.13092,996.66821 C1655.13092,998.241407 1656.45511,999.520907 1658.08194,999.520907 C1659.70877,999.520907 1661.03296,998.241407 1661.03296,996.66821 C1661.03296,995.09629 1659.70877,993.816791 1658.08194,993.816791 L1658.08194,993.816791 Z M1658.08194,1000.75571 C1655.75024,1000.75571 1653.85397,998.922019 1653.85397,996.66821 C1653.85397,994.415678 1655.75024,992.583261 1658.08194,992.583261 C1660.41364,992.583261 1662.30991,994.415678 1662.30991,996.66821 C1662.30991,998.922019 1660.41364,1000.75571 1658.08194,1000.75571 L1658.08194,1000.75571 Z M1658.08194,991.234806 C1654.88064,991.234806 1652.27695,993.751666 1652.27695,996.846983 C1652.27695,999.282118 1656.06564,1006.02695 1658.08194,1009.34445 C1660.09824,1006.02695 1663.88821,999.282118 1663.88821,996.846983 C1663.88821,993.751666 1661.28324,991.234806 1658.08194,991.234806 L1658.08194,991.234806 Z M1658.08194,1011.74 L1657.53668,1010.8704 C1657.2698,1010.44518 1651,1000.4186 1651,996.846983 C1651,993.072331 1654.17704,990 1658.08194,990 C1661.98812,990 1665.16644,993.072331 1665.16644,996.846983 C1665.16644,1000.4186 1658.89536,1010.44518 1658.6272,1010.8704 L1658.08194,1011.74 Z" id="location-white"></path>
        </g>
    </g>
</svg>