<?xml version="1.0" encoding="UTF-8"?>
<svg width="15px" height="23px" viewBox="0 0 15 23" version="1.1" xmlns="http://www.w3.org/2000/svg" xmlns:xlink="http://www.w3.org/1999/xlink">
    <!-- Generator: Sketch 55.2 (78181) - https://sketchapp.com -->
    <title>location-gray-15x23</title>
    <desc>Created with Sketch.</desc>
    <g id="Page-1" stroke="none" stroke-width="1" fill="none" fill-rule="evenodd">
        <g id="Artboard" transform="translate(-1651.000000, -990.000000)" fill="#B1ADA6" fill-rule="nonzero">
            <path d="M1658.49865,994.041374 C1656.7761,994.041374 1655.37399,995.39616 1655.37399,997.060573 C1655.37399,998.726339 1656.7761,1000.08112 1658.49865,1000.08112 C1660.2212,1000.08112 1661.62331,998.726339 1661.62331,997.060573 C1661.62331,995.39616 1660.2212,994.041374 1658.49865,994.041374 L1658.49865,994.041374 Z M1658.49865,1001.38859 C1656.02975,1001.38859 1654.0219,999.446998 1654.0219,997.060573 C1654.0219,994.6755 1656.02975,992.735262 1658.49865,992.735262 C1660.96755,992.735262 1662.97539,994.6755 1662.97539,997.060573 C1662.97539,999.446998 1660.96755,1001.38859 1658.49865,1001.38859 L1658.49865,1001.38859 Z M1658.49865,991.307463 C1655.10898,991.307463 1652.35208,993.972418 1652.35208,997.249865 C1652.35208,999.828286 1656.36371,1006.96998 1658.49865,1010.48269 C1660.63359,1006.96998 1664.64657,999.828286 1664.64657,997.249865 C1664.64657,993.972418 1661.88832,991.307463 1658.49865,991.307463 L1658.49865,991.307463 Z M1658.49865,1013.0192 L1657.92131,1012.09843 C1657.63872,1011.64819 1651,1001.03164 1651,997.249865 C1651,993.25311 1654.36398,990 1658.49865,990 C1662.63467,990 1666,993.25311 1666,997.249865 C1666,1001.03164 1659.35992,1011.64819 1659.07599,1012.09843 L1658.49865,1013.0192 Z" id="location-gray-15x23"></path>
        </g>
    </g>
</svg>