<?xml version="1.0" encoding="UTF-8"?>
<svg width="20px" height="20px" viewBox="0 0 20 20" version="1.1" xmlns="http://www.w3.org/2000/svg" xmlns:xlink="http://www.w3.org/1999/xlink">
    <!-- Generator: Sketch 55.2 (78181) - https://sketchapp.com -->
    <title>location-detect</title>
    <desc>Created with Sketch.</desc>
    <g id="Page-1" stroke="none" stroke-width="1" fill="none" fill-rule="evenodd">
        <g id="Artboard" transform="translate(-581.000000, -266.000000)" fill="#141413">
            <g id="location-detect" transform="translate(581.000000, 266.000000)">
                <g id="target">
                    <path d="M10.4683196,9.55454545 L13.0027548,9.55454545 L13.0027548,10.4636364 L10.4683196,10.4636364 L10.4683196,12.8636364 L9.55004591,12.8636364 L9.55004591,10.4636364 L7.21763085,10.4636364 L7.21763085,9.55454545 L9.55004591,9.55454545 L9.55004591,7.13636364 L10.4683196,7.13636364 L10.4683196,9.55454545 Z M20,10.4636364 L18.1634527,10.4636364 C17.9234651,14.5485028 14.6311782,17.8078668 10.5050505,18.0454545 L10.5050505,20 L9.58677686,20 L9.58677686,18.0454545 C5.46064911,17.8078668 2.1683623,14.5485028 1.92837466,10.4636364 L0,10.4636364 L0,9.55454545 L1.91919192,9.55454545 C2.15917956,5.46967899 5.45146638,2.21031504 9.57759412,1.97272727 L9.57759412,0 L10.4958678,0 L10.4958678,1.96363636 C14.6238144,2.19720794 17.9183391,5.45878734 18.15427,9.54545455 L19.9908173,9.54545455 L20,10.4636364 Z M17.2451791,10.4636364 L15.8218549,10.4636364 L15.8218549,9.55454545 L17.2359963,9.55454545 C16.9994156,5.9707935 14.1158192,3.11603312 10.4958678,2.88181818 L10.4958678,4.12727273 L9.57759412,4.12727273 L9.57759412,2.87272727 C5.95764265,3.10694221 3.07404631,5.96170259 2.83746556,9.54545455 L4.16896235,9.54545455 L4.16896235,10.4545455 L2.83746556,10.4545455 C3.07404631,14.0382974 5.95764265,16.8930578 9.57759412,17.1272727 L9.57759412,15.8727273 L10.4958678,15.8727273 L10.4958678,17.1363636 C14.1194018,16.9065233 17.0080839,14.0506188 17.2451791,10.4636364 L17.2451791,10.4636364 Z" id="icon"></path>
                </g>
            </g>
        </g>
    </g>
</svg>