<?xml version="1.0" encoding="UTF-8"?>
<svg width="22px" height="22px" viewBox="0 0 22 22" version="1.1" xmlns="http://www.w3.org/2000/svg" xmlns:xlink="http://www.w3.org/1999/xlink">
    <!-- Generator: Sketch 55.2 (78181) - https://sketchapp.com -->
    <title>printer</title>
    <desc>Created with Sketch.</desc>
    <g id="Page-2" stroke="none" stroke-width="1" fill="none" fill-rule="evenodd">
        <g id="05.02)-listing-with-export-expand-and-print" transform="translate(-1219.000000, -85.000000)" fill="#CF4500" fill-rule="nonzero">
            <g id="printer" transform="translate(1219.000000, 85.000000)">
                <path d="M16.32,7.32 L16.32,0 L5.68,0 L5.68,7.32 L0,7.32 L0,18.38 L5.54,18.38 L5.54,21.58 L16.18,21.58 L16.18,18.38 L22,18.38 L22,7.32 L16.32,7.32 Z M6.64,1 L15.37,1 L15.37,7.32 L6.64,7.32 L6.64,1 Z M15.22,20.66 L6.49,20.66 L6.49,15.74 L15.22,15.74 L15.22,20.66 Z M21,17.42 L16.18,17.42 L16.18,14.78 L5.54,14.78 L5.54,17.42 L1,17.42 L1,8.27 L21,8.27 L21,17.42 Z"></path>
            </g>
        </g>
    </g>
</svg>