<?xml version="1.0" encoding="UTF-8"?>
<svg width="82px" height="82px" viewBox="0 0 82 82" version="1.1" xmlns="http://www.w3.org/2000/svg" xmlns:xlink="http://www.w3.org/1999/xlink">
    <!-- Generator: Sketch 55.2 (78181) - https://sketchapp.com -->
    <title>Assets / Icons / process complete</title>
    <desc>Created with Sketch.</desc>
    <g id="28.-Lead-Generation" stroke="none" stroke-width="1" fill="none" fill-rule="evenodd">
        <g id="Tablet---Lead-Generation" transform="translate(-103.000000, -1712.000000)" fill="#628020">
            <g id="Group-2" transform="translate(0.000000, 1298.000000)">
                <g id="Group-3" transform="translate(100.000000, 411.000000)">
                    <g id="Assets-/-Icons-/-process-complete">
                        <path d="M38.9766667,56.21 L27.8666667,45.3933333 L30.3233333,42.8633333 L38.9766667,51.2966667 L60.2066667,30.2866667 L62.6633333,32.78 L38.9766667,56.21 L38.9766667,56.21 Z M44,3.66666667 C21.7245151,3.66666667 3.66666667,21.7245151 3.66666667,44 C3.66666667,66.2754849 21.7245151,84.3333333 44,84.3333333 C66.2754849,84.3333333 84.3333333,66.2754849 84.3333333,44 C84.3333333,33.3029349 80.0839408,23.0439938 72.5199735,15.4800265 C64.9560062,7.91605923 54.6970651,3.66666667 44,3.66666667 Z M44,80.6666667 C23.7495592,80.6666667 7.33333333,64.2504408 7.33333333,44 C7.33333333,23.7495592 23.7495592,7.33333333 44,7.33333333 C64.2504408,7.33333333 80.6666667,23.7495592 80.6666667,44 C80.5663732,64.2087521 64.2087521,80.5663732 44,80.6666667 Z" id="icon"></path>
                    </g>
                </g>
            </g>
        </g>
    </g>
</svg>