<?xml version="1.0" encoding="UTF-8"?>
<svg width="40px" height="40px" viewBox="0 0 40 40" version="1.1" xmlns="http://www.w3.org/2000/svg" xmlns:xlink="http://www.w3.org/1999/xlink">
    <!-- Generator: Sketch 55.2 (78181) - https://sketchapp.com -->
    <title>Group 5 Copy 7</title>
    <desc>Created with Sketch.</desc>
    <g id="Page-1" stroke="none" stroke-width="1" fill="none" fill-rule="evenodd">
        <g id="comment-component@1440px---Normal-12-Columns-24px-Gutters" transform="translate(-1188.000000, -2441.000000)">
            <g id="Group-5-Copy-7" transform="translate(1188.000000, 2441.000000)">
                <g id="primary_button-copy-5" stroke="#141413">
                    <rect id="Rectangle" x="0.5" y="0.5" width="39" height="39" rx="19.5"></rect>
                </g>
                <g id="sent-copy" transform="translate(14.000000, 10.000000)" fill="#141413">
                    <path d="M3.20117647,7.88527273 L0.0379411765,0.626181818 C-0.0397058824,0.447090909 0.00441176471,0.236181818 0.15,0.108 C0.292941176,-0.0201818182 0.502058824,-0.0356363636 0.662647059,0.0689090909 L14.4141176,9.08163636 C14.5332353,9.15890909 14.6082353,9.29163636 14.6135294,9.43709091 C14.6197059,9.58163636 14.5579412,9.72072727 14.4458824,9.80890909 L1.70117647,19.908 C1.62352941,19.9689091 1.53088235,19.9998182 1.43735294,19.9998182 C1.35529412,19.9998182 1.27235294,19.9752727 1.2,19.9261818 C1.04647059,19.8216364 0.975,19.628 1.02,19.4443636 L3.465,9.66709091 C3.51352941,9.47072727 3.68558824,9.33345455 3.88235294,9.33345455 L10.1435294,9.33345455 L10.1435294,10.2225455 L4.21676471,10.2225455 L2.16882353,18.4161818 L13.4320588,9.49072727 L1.41441176,1.61527273 L3.98823529,7.52163636 L3.20117647,7.88527273 Z" id="icon"></path>
                </g>
            </g>
        </g>
    </g>
</svg>