<?xml version="1.0" encoding="UTF-8"?>
<svg width="17px" height="22px" viewBox="0 0 17 22" version="1.1" xmlns="http://www.w3.org/2000/svg" xmlns:xlink="http://www.w3.org/1999/xlink">
    <!-- Generator: Sketch 55.2 (78181) - https://sketchapp.com -->
    <title>send-submit</title>
    <desc>Created with Sketch.</desc>
    <g id="Page-1" stroke="none" stroke-width="1" fill="none" fill-rule="evenodd">
        <g id="Artboard" transform="translate(-296.000000, -21.000000)" fill="#141413">
            <g id="send-submit" transform="translate(296.000000, 21.000000)">
                <path d="M3.628,8.6738 L0.043,0.6888 C-0.045,0.4918 0.005,0.2598 0.17,0.1188 C0.332,-0.0222 0.569,-0.0392 0.751,0.0758 L16.336,9.9898 C16.471,10.0748 16.556,10.2208 16.562,10.3808 C16.569,10.5398 16.499,10.6928 16.372,10.7898 L1.928,21.8988 C1.84,21.9658 1.735,21.9998 1.629,21.9998 C1.536,21.9998 1.442,21.9728 1.36,21.9188 C1.186,21.8038 1.105,21.5908 1.156,21.3888 L3.927,10.6338 C3.982,10.4178 4.177,10.2668 4.4,10.2668 L11.496,10.2668 L11.496,11.2448 L4.779,11.2448 L2.458,20.2578 L15.223,10.4398 L1.603,1.7768 L4.52,8.2738 L3.628,8.6738 Z" id="icon"></path>
            </g>
        </g>
    </g>
</svg>