<?xml version="1.0" encoding="utf-8"?>
<!-- Generator: Adobe Illustrator 22.0.0, SVG Export Plug-In . SVG Version: 6.00 Build 0)  -->
<svg version="1.1" id="Layer_1" xmlns="http://www.w3.org/2000/svg" xmlns:xlink="http://www.w3.org/1999/xlink" x="0px" y="0px"
	 width="69px" height="69px" viewBox="0 0 69 69" style="enable-background:new 0 0 69 69;" xml:space="preserve">
<style type="text/css">
	.st0{fill:#FF5F00;}
</style>
<path class="st0" d="M22.9367962,9.2475758c-0.1291885,0.1164894-0.2818298,0.0899696-0.4332256,0.0710487
	c0.0052891-0.0235929,0.0101376-0.0472755,0.0145454-0.0710487C22.6576767,9.2475758,22.7972355,9.2475758,22.9367962,9.2475758z"/>
<path class="st0" d="M34.3038292,14.8152332c0.9344025-0.0000048,1.8690796,0.012743,2.803051-0.007308
	c0.3037529-0.0065222,0.3833084,0.0939026,0.3643608,0.3791981c-0.0230598,0.3471279-0.0146294,0.6972799-0.0021286,1.0454874
	c0.0075073,0.2091045-0.0490303,0.2922249-0.278286,0.2912235c-1.9385033-0.0084705-3.8770714-0.0084476-5.8155766-0.000021
	c-0.2289028,0.0009956-0.2852764-0.0816536-0.2784042-0.2909832c0.0123482-0.3761444,0.0185833-0.7538071-0.0017738-1.1292543
	c-0.0140343-0.2588034,0.102747-0.2943077,0.3219032-0.292244C32.3791847,14.8203897,33.3415298,14.815238,34.3038292,14.8152332z"
	/>
<path class="st0" d="M45.0861816,45.5189819c-7.8850098-0.000061-15.7699585-0.0032349-23.6549072,0.0095825
	c-0.3885498,0.0006104-0.4703369-0.1053467-0.4699707-0.4778442c0.0102539-10.522583,0.0082397-21.0452271,0.0083008-31.5678101
	c0-1.6184692,0.9217529-2.5465088,2.5299072-2.5465088c7.1732178-0.0001831,14.3464355-0.0001221,21.5196533-0.000061
	c1.5532227,0,2.4934692,0.9418335,2.4935303,2.4987793c0.0001221,8.2338867,0.000061,16.4677734,0.000061,24.7015991
	c0,1.9537964-0.0010376,3.9075928,0.0023193,5.8613892c0.0002441,0.1333008-0.0702515,0.3219604,0.0733643,0.3894653
	c0.5863037,0.2753906,1.0939941,0.6687622,1.6182251,1.1000977c0.0058594-0.095459,0.0090332-0.123291,0.0090332-0.151123
	c0.0003052-10.7179565,0.0039673-21.4359741-0.0045776-32.1539307c-0.0009766-1.1891479-0.4867554-2.1815796-1.3783569-2.9780273
	c-0.5640869-0.5038452-1.2485962-0.7462158-1.9523315-0.9570312c-7.6478882,0-15.2957153,0-22.9436035,0
	c-0.132019,0.0991821-0.2973022-0.0041504-0.4332275,0.0710449c-1.871582,0.3223267-3.2367554,1.9868164-3.2369995,3.9544678
	c-0.0010376,8.2059326-0.0004272,16.4119263-0.0004272,24.6178589c0,6.4196167-0.0010986,12.8392334,0.0006104,19.2588501
	c0.0006104,2.2041016,1.6825562,3.9868164,3.8693237,4.0053101c4.1444092,0.0351562,8.2892456,0.0213013,12.4338989,0.0217896
	c3.2794189,0.0003662,6.5591431,0.0151978,9.8381958-0.0214233c2.081543-0.0231934,3.7941895-1.8059082,3.8048706-3.8999023
	c0.0130005-2.553833,0.0159912-5.1079102-0.0007324-7.6616821C49.1969604,47.241333,47.4373169,45.5189819,45.0861816,45.5189819z
	 M47.5125732,57.012207c-0.0004272,1.4944458-0.9521484,2.4730835-2.4451294,2.4743042
	c-7.1872559,0.0057983-14.3745117,0.0060425-21.5617676,0c-1.6142578-0.0013428-2.5360107-0.9447632-2.5360718-2.5513306
	c-0.000061-3.0424194-0.000061-6.0847778,0-9.1271973c0-0.5855713,0-0.5855713,0.6066284-0.5855713
	c3.9215698-0.000061,7.8432007-0.000061,11.7647705-0.000061c3.9076538,0,7.8153076-0.0003052,11.7229614,0.0001831
	c1.4917603,0.0001831,2.4483032,0.9625244,2.4486694,2.4628906C47.5131226,52.1276855,47.5132446,54.5699463,47.5125732,57.012207z"
	/>
<path class="st0" d="M43.7092896,27.1952515c-2.0718384-3.1855469-6.0167236-4.0922241-9.2542725-2.0740967
	c-0.2010498,0.1253052-0.3215332,0.1161499-0.5114746-0.008667c-1.024231-0.6730347-2.1553345-1.0162964-3.3814087-1.055542
	c-4.0023193-0.1281738-7.2561646,3.3029785-6.6725464,7.4039307c0.6738281,4.7348633,5.9355469,7.1217041,9.9952393,4.5787964
	c0.2004395-0.1255493,0.324646-0.1115112,0.5078125,0.0144043c1.1134644,0.7653809,2.3621216,1.0974121,3.7025757,1.1191406
	c0.1246948-0.0092163,0.2493286-0.0203247,0.3741455-0.0273438c2.5700073-0.144165,4.4355469-1.4821777,5.5776367-3.6719971
	C45.1333008,31.3912354,45.0394287,29.2403564,43.7092896,27.1952515z M32.6811523,34.3969116
	c0.1777344,0.2561035,0.1105957,0.3207397-0.1192017,0.4395752c-3.1865234,1.647644-7.0343018-0.6826172-7.0429688-4.2704468
	c-0.008667-3.5983887,3.9064331-5.9691162,7.0673218-4.28479c0.2539673,0.135376,0.335022,0.2095947,0.1293335,0.4981689
	C31.0499268,29.1166382,31.0388184,32.0309448,32.6811523,34.3969116z M34.3403931,33.2861938
	c-0.175293,0.2367554-0.2344971,0.1654053-0.3671875-0.0285645c-1.1384277-1.6642456-1.0548096-3.9894409,0.2265625-5.5839844
	C35.4832764,29.2358398,35.5308228,31.6778564,34.3403931,33.2861938z M37.0356445,35.3516846
	c-0.4793701-0.1049194-0.930481-0.2694702-1.3630981-0.4979858c-0.1854248-0.0979004-0.2390747-0.1726074-0.0877075-0.3679199
	c0.5791016-0.7471924,0.8943481-1.6140137,1.1889648-2.5076904c0.2717285-0.8242798,0.3182983-1.6483765,0.1216431-2.4469604
	c-0.2393188-0.9719849-0.5549927-1.9465942-1.2050171-2.7473755c-0.2260742-0.2785034-0.1221924-0.3693848,0.1337891-0.4955444
	c3.4050293-1.6776123,7.1038818,0.7640381,7.1390991,4.3027344C42.9798584,33.6970215,40.0847168,36.0187988,37.0356445,35.3516846z
	"/>
<path class="st0" d="M34.2385864,49.3571167c-2.2056885,0.0062256-3.9795532,1.7902222-3.9754028,3.9981689
	c0.0040894,2.2150269,1.7698975,3.972229,3.9902954,3.9707031c2.1432495-0.012146,4.0700073-1.6349487,4.0751953-3.9854126
	C38.3335571,51.1473999,36.4815063,49.350769,34.2385864,49.3571167z M34.2484131,55.6372681
	c-1.2614746-0.0016479-2.2770996-1.0163574-2.2818604-2.2799072c-0.0046997-1.2545166,1.0076904-2.2893066,2.2614136-2.3114014
	c1.2373657-0.0218506,2.3261719,1.0661621,2.3148193,2.3132324C36.5313721,54.6165161,35.501709,55.638916,34.2484131,55.6372681z"
	/>
</svg>
