<?xml version="1.0" encoding="UTF-8"?>
<svg width="20px" height="20px" viewBox="0 0 20 20" version="1.1" xmlns="http://www.w3.org/2000/svg" xmlns:xlink="http://www.w3.org/1999/xlink">
    <!-- Generator: Sketch 55.2 (78181) - https://sketchapp.com -->
    <title>started-white</title>
    <desc>Created with Sketch.</desc>
    <g id="Designs-on-Invision" stroke="none" stroke-width="1" fill="none" fill-rule="evenodd">
        <g id="02)-Sidebar-dropdown" transform="translate(-406.000000, -364.000000)" stroke="#FFFFFF">
            <g id="started-white" transform="translate(407.000000, 365.000000)">
                <circle id="Oval" cx="9" cy="9" r="9"></circle>
                <g id="Group-4" transform="translate(6.000000, 4.000000)" fill="#FFFFFF" fill-rule="nonzero" stroke-width="0.3">
                    <path d="M2.88805148,7.91851528 L2.88805148,7.91851528 C2.63412746,7.91851528 2.42828137,7.71266919 2.42828137,7.45874517 L2.42828137,5.33144172 C2.42828137,5.2283097 2.4692504,5.12940169 2.54217576,5.05647634 C2.61510111,4.98355099 2.71400911,4.94258195 2.81714114,4.94258195 L2.81714114,4.94258195 C3.89299687,4.95678612 4.79837839,4.14021781 4.89493424,3.06860954 C4.9677245,2.00521177 4.19842955,1.06962518 3.14100903,0.935553953 C2.08358852,0.801482727 1.1051425,1.51547178 0.910237687,2.56338655 C0.86844107,2.77797161 0.679830625,2.93242294 0.461216998,2.9310854 L0.461216998,2.9310854 C0.324608656,2.93127547 0.194964829,2.87081263 0.107312157,2.76603245 C0.019659484,2.66125228 -0.0169564025,2.52296796 0.00735722755,2.38854057 C0.283104144,0.925111354 1.61233046,-0.0989830332 3.0976921,0.00761073212 C4.58305374,0.114204497 5.75242866,1.3176056 5.81638647,2.80541299 C5.88034427,4.29322038 4.81855598,5.59253463 3.3478216,5.82620494 L3.3478216,7.45874747 C3.34782033,7.71267059 3.14197461,7.91851528 2.88805148,7.91851528 Z" id="Shape"></path>
                    <circle id="Oval" cx="2.90926757" cy="9.20200034" r="1"></circle>
                </g>
            </g>
        </g>
    </g>
</svg>